<svg fill="none" height="64" viewBox="0 0 64 64" width="64" xmlns="http://www.w3.org/2000/svg"><path d="m0 0h64v64h-64z" fill="#36008e"/><path d="m30.2858 50.1719c.0002 1.0097.7676 1.8281 1.7142 1.8281s1.714-.8184 1.7142-1.8281v-1.9286c.0502-3.9935 3.1006-7.2143 6.8563-7.2143h1.7142c.9468 0 1.7153-.8187 1.7153-1.8286s-.7675-1.8286-1.7142-1.8286h-1.7538c-3.738-.0219-6.7678-3.2343-6.8178-12.0141v-11.5286c0-1.0099-.7675-1.8291-1.7142-1.8291s-1.7142.8187-1.7142 1.8286l-.0007 11.4291c0 8.8258-3.0491 12.092-6.8184 12.1141h-1.7525c-.9466.0001-1.7142.8188-1.7142 1.8286s.7674 1.8284 1.714 1.8285l1.7142.0001c3.787 0 6.8569 3.2748 6.8569 7.3143z" fill="#fff"/></svg>