<svg fill="none" viewBox="0 0 832 444" xmlns="http://www.w3.org/2000/svg"><g fill="#36008e"><path d="m460 136c0-75.1107 60.889-136 136-136 75.111 0 136 60.8893 136 136v196h-272z"/><path clip-rule="evenodd" d="m464.534 340.17c-.701 0-1.164-.219-1.412-.538-.548-.705-.057-1.9 1.208-2.321.067-.025.135-.051.204-.078.017-.006.034-.013.052-.02 3.111-1.24 6.828-4.669 8.79-9.829.383-1.006.699-2.079.931-3.214.282-1.384.44-2.861.44-4.425v-55.149c0-1.564-.158-3.042-.44-4.426-.232-1.135-.548-2.207-.931-3.214-.342-.9-.738-1.747-1.174-2.539-2.08-3.775-5.087-6.3-7.668-7.31-.069-.027-.137-.053-.204-.077-1.839-.613-2.043-2.86.204-2.86h24.919c1.021 0 1.634.613 1.634 1.634v19.404l10.826-11.438c.274-.274.518-.543.734-.806.013-.016.026-.033.039-.049.261-.323.479-.639.656-.947.869-1.511.764-2.846 0-4.086-.265-.43-.61-.85-1.021-1.261-.291-.291-.489-.565-.606-.817-.457-.986.326-1.634 1.627-1.634h25.532c1.226 0 1.634 1.021.817 2.043-.276.294-.548.591-.817.891-3.038 3.39-5.6 7.132-7.656 10.858-.407.737-.794 1.475-1.161 2.208-.087.175-.174.349-.259.523-.71 1.454-1.341 2.891-1.89 4.289-.232.591-.45 1.175-.653 1.751-.795 2.254-1.366 4.375-1.703 6.263-.241 1.349-.363 2.578-.363 3.651 0 .138.001.275.002.408.005.537.021 1.033.048 1.496.083 1.458.27 2.587.563 3.611 1.225-.817 2.451-1.226 3.472-1.226.239 0 .473.011.702.033 3.308.316 5.63 2.861 5.63 6.299 0 2.347-1.082 4.278-2.821 5.368-.985.617-2.181.964-3.511.964-3.963 0-6.663-2.528-8.25-6.332-.373-.894-.685-1.859-.937-2.879-.046-.184-.089-.37-.131-.557-.299-1.345-.499-2.777-.603-4.259-.058-.825-.087-1.667-.087-2.518 0-.134.001-.271.002-.408.011-.874.057-1.809.14-2.792.031-.367.068-.74.11-1.12.156-1.418.387-2.919.702-4.466.095-.467.198-.937.308-1.411.27-1.159.586-2.337.952-3.52.041-.132.082-.263.124-.395.125-.39.254-.78.389-1.169.186-.536.382-1.071.589-1.604.301-.777.625-1.55.973-2.315h-5.719l-16.749 17.77v44.12c0 1.564.157 3.041.44 4.425.232 1.135.548 2.208.931 3.214 1.973 5.189 5.72 8.627 8.842 9.849.068.027.136.053.204.078 1.838.612 2.043 2.859-.204 2.859zm43.415-17.509c2.441 1.054 4.892 2.754 6.858 5.057-.341-1.939-.524-3.98-.524-6.126 0-4.501.824-8.563 2.071-12.158-3.209-.37-6.06-1.34-8.553-2.709l-.714.476v12.544c0 1.407.409 2.268.731 2.739.048.069.092.128.131.177zm14.443 20.937c-1.263-1.473-2.429-3.07-3.459-4.793.001.055.001.11.001.165 0 4.846-2.075 9.782-6.24 13.203-3.921 3.221-8.301 3.997-11.394 3.997h-36.766c-3.094 0-7.473-.776-11.394-3.997-.422-.346-.822-.708-1.2-1.083-6.265 4.2-14.07 6.714-23.414 6.714-12.583 0-22.639-4.797-30.171-12.127-1.035 2.433-2.658 4.678-4.871 6.496-3.922 3.221-8.301 3.997-11.394 3.997h-36.766c-.508 0-1.05-.021-1.62-.07-.626.053-1.188.07-1.666.07h-20.63c-2.461 0-5.551-.427-8.738-2.021-2.059-1.03-3.683-2.309-4.945-3.555-.516.555-1.076 1.083-1.68 1.579-3.921 3.221-8.301 3.997-11.394 3.997h-36.766c-1.092 0-2.343-.096-3.678-.363-1.335.267-2.587.363-3.678.363h-24.92c-2.948 0-6.609-.741-9.964-3.012-2.888 1.941-6.334 3.012-9.848 3.012h-19.879-2.453-10.554c-3.093 0-7.472-.776-11.394-3.997-2.354-1.934-4.041-4.352-5.062-6.965-.17.143-.335.282-.495.416-.371.312-.715.601-1.027.866-.96.816-1.563 1.351-1.953 1.72-.662 1.396-1.761 3.314-3.485 5.098-3.71 3.84-8.857 5.678-14.062 5.157-3.593-.359-6.354-1.802-7.188-2.238l-.047-.025c-.903-.471-1.928-1.077-2.578-1.462-.104-.061-.199-.117-.282-.166-8.983-5.284-16.863-12.304-22.979-20.509-8.3082 13.362-22.2466 24.148-43.1459 24.148-19.0416 0-34.4619-9.342-44.5708-23.64-9.82787-13.9-14.527066-32.134-14.527066-51.39 0-26.415 7.394006-46.845 14.642566-61.428 3.1233-6.284 6.2747-11.574 8.5614-15.413.2144-.36.4213-.707.6198-1.041-1.5399-3.435-2.1222-7.71-.3413-12.607 3.3182-9.125 11.9219-11.503 16.8239-11.503h59.2341c3.6483 0 10.9213 1.27 15.2613 8.372 5.139 8.409 1.335 16.456-1.236 19.884l-.084.112-.086.111c-1.026 1.319-2.059 2.626-3.087 3.925-6.595 8.342-12.9554 16.387-15.7037 25.529 4.0276 3.074 6.9287 7.412 8.3357 12.176.825-1.026 1.666-2.009 2.518-2.951 3.466-3.832 7.131-6.991 9.579-9.1.419-.362.803-.692 1.144-.99 1.045-.914 1.655-1.505 1.976-1.825.643-1.413 1.773-3.484 3.627-5.402 3.709-3.839 8.856-5.677 14.062-5.157 3.593.359 6.353 1.802 7.187 2.238l.048.025c.903.472 1.927 1.077 2.578 1.462.104.062.198.118.281.166l.06.036.06.035c3.829 2.298 7.498 4.92 10.935 7.825 1.032-2.046 2.5-3.929 4.406-5.495 3.922-3.221 8.301-3.997 11.394-3.997h24.92c2.356 0 5.168.473 7.915 1.823 2.905-1.422 5.793-1.823 8.017-1.823h36.766c1.091 0 2.343.097 3.678.363 1.335-.266 2.586-.363 3.678-.363h24.919c1.774 0 3.807.268 5.875.977 1.843-.639 3.795-.977 5.768-.977h41.055c.478 0 1.025.018 1.626.07-.924-1.356-1.76-2.971-2.337-4.867-1.1-3.616-1.173-8.188 1.026-12.635 2.032-4.109 5.193-6.463 7.456-7.72l.072-.041 21.928-11.886c4.156-2.244 14.171-4.968 21.607 3.53 5.487 6.271 4.626 13.622 3.113 17.799-1.684 4.717-2.116 6.276-2.116 10.712v5.038h3.813c2.649 0 7.155.641 11.115 3.879 3.565-2.814 7.85-3.879 11.219-3.879h42.689c1.142 0 2.455.128 3.839.426 1.449-.314 2.808-.426 3.982-.426h24.919c2.054 0 4.453.36 6.854 1.345 2.998-1.179 5.747-1.345 7.035-1.345h25.532c4.94 0 12.718 2.414 16.03 10.696 3.042 7.604-.176 14.164-2.719 17.342l-.395.494-.433.462c-3.302 3.516-5.995 7.828-7.83 11.938-.095.213-.187.423-.276.631 2.133 1.691 3.939 3.77 5.32 6.138 1.737-.492 3.449-.713 4.988-.713h40.034c1.21 0 2.857.118 4.71.618 1.747-.462 3.392-.618 4.779-.618h25.123c1.928 0 3.78.31 5.511.883 4.002-1.639 8.34-2.517 12.872-2.517 12.799 0 23.916 5.637 31.497 15.16.277-1.2.686-2.377 1.226-3.511 3.573-7.504 10.906-10.015 16.08-10.015h41.132v-10.553c0-1.407-.409-2.269-.731-2.739-.047-.07-.092-.129-.131-.178-5.467-2.36-10.984-7.965-10.985-16.308 0-4.847 2.075-9.782 6.24-13.204 3.922-3.221 8.301-3.997 11.394-3.997h24.92c2.763 0 6.152.651 9.329 2.602 3.364-2.059 6.849-2.602 9.435-2.602h24.919c3.719 0 8.572 1.179 12.514 5.121s5.12 8.795 5.12 12.513v120.92c0 1.407.409 2.268.731 2.739.048.069.092.128.132.178 5.466 2.359 10.984 7.964 10.984 16.308 0 4.847-2.075 9.782-6.24 13.203-3.921 3.221-8.301 3.997-11.394 3.997h-36.766c-1.032 0-2.206-.086-3.459-.321-1.253.235-2.427.321-3.459.321h-36.766c-3.018 0-7.261-.739-11.108-3.767-5.881 3.406-12.984 5.401-21.309 5.401-19.779 0-33.313-11.852-40.618-26.764-.38.544-.743 1.06-1.083 1.545 1.51 3.905 1.485 8.093.197 11.795-2.673 7.684-9.9 11.79-16.695 11.79h-6.059v2.383c0 .559.091.969.199 1.278.114.325.276.619.469.875.148.197.293.343.398.435 5.152 1.924 11.955 7.218 11.955 16.637 0 5.435-2.575 10.446-6.834 13.64-3.898 2.924-8.093 3.561-10.953 3.561h-37.787c-3.094 0-7.473-.776-11.394-3.997-4.165-3.422-6.24-8.357-6.24-13.203 0-8.344 5.517-13.949 10.984-16.309.039-.049.084-.108.131-.178.322-.47.731-1.332.731-2.739v-12.223c-.261.567-.563 1.139-.909 1.715-2.523 4.205-6.191 6.206-8.664 7.096-2.431.875-4.59 1.029-5.974 1.029h-43.711c-3.606 0-11.173-1.308-15.288-8.951-3.974-7.381-1.195-14.216.547-17.119l.504-.84.603-.773c2.86-3.664 5.353-7.073 7.446-10.335-1.674-2.942-2.663-6.401-2.663-10.254 0-3.864 1.032-7.815 3.207-11.288zm13.045 12.832c.109.32.25.624.419.907.895 1.505 2.563 2.451 4.231 2.451.132 0 .268-.005.409-.017.731-.059 1.561-.286 2.246-.8-.649 1.867-1.403 3.702-2.246 5.509-.134.287-.271.574-.409.859-.067.14-.135.279-.204.418-.899 1.826-1.887 3.625-2.946 5.401-.074.125-.149.249-.224.373-.364.605-.736 1.207-1.116 1.806-.352.557-.711 1.111-1.076 1.664-2.012 3.048-4.204 6.039-6.485 9.002-.339.439-.679.878-1.021 1.317-.613 1.021-.205 1.838 1.021 1.838h43.711c.817 0 1.429-.408.612-1.634-.25-.376-.458-.76-.612-1.149-.388-.974-.442-1.979 0-2.962.045-.101.096-.202.152-.302.247-.443.6-.88 1.073-1.306 6.197-5.402 11.775-10.681 14.044-17.566.099-.301.192-.606.278-.913.478-1.7.755-3.498.793-5.419.045-2.007-.159-3.839-.574-5.517-.067-.272-.14-.541-.219-.805-1.106-3.731-3.294-6.675-6.132-9.093-1.82-1.549-3.907-2.883-6.147-4.069-.599-.317-1.208-.623-1.826-.92-1.504-.724-3.061-1.392-4.639-2.026-1.029-.412-2.067-.81-3.105-1.198-1.244-.465-2.489-.915-3.72-1.361l-.005-.002c-1.651-.597-3.276-1.186-4.84-1.786-.224-.087-.448-.173-.67-.26-.503-.197-.998-.396-1.486-.597-4.454-1.835-8.213-3.872-10.333-6.681-1.181-1.565-1.853-3.37-1.853-5.515 0-3.301 1.213-6.382 3.153-8.919.057-.075.116-.151.175-.225.657-.83 1.392-1.598 2.187-2.294h22.264c-.239.812-.478 1.647-.704 2.519-.231.895-.449 1.829-.639 2.82-.091.477-.176.966-.253 1.471-.219 1.437-.373 2.997-.426 4.722-.001.034-.002.068-.003.103-.012.402-.018.813-.018 1.233 0 .738.079 1.457.23 2.143.069.314.153.622.252.921.008.023.015.045.023.068.557 1.636 1.553 3.009 2.891 3.869.954.613 2.081.965 3.345.965.135 0 .272-.006.408-.019 1.069-.096 2.147-.564 3-1.303.889-.771 1.534-1.836 1.671-3.083.018-.163.027-.329.027-.497 0-1.147-.381-2.218-1.028-3.064-.337-.441-.745-.82-1.21-1.119-.709-.455-1.548-.719-2.46-.719-.136 0-.273.005-.408.017-.097.008-.193.019-.288.033-.572.083-1.113.271-1.551.563.001-.047.003-.093.004-.139.069-2.305.539-4.528 1.271-6.656.272-.79.58-1.566.917-2.329.018-.041.037-.083.055-.124.118-.264.239-.526.364-.786.178-.373.363-.743.553-1.109.59-1.133 1.234-2.233 1.906-3.297.387-.611.782-1.211 1.183-1.798 1.238-1.816 2.52-3.511 3.699-5.071.157-.208.312-.413.465-.617.138-.183.275-.364.409-.543 1.634-2.042.613-2.655-.409-2.655h-40.034c-1.838 0-2.042 1.634-1.021 2.247.457.274.791.548 1.021.859.284.384.409.823.409 1.388 0 .422-.146.888-.409 1.399-.224.438-.534.908-.909 1.413-.685.921-1.59 1.956-2.6 3.111-3.154 3.605-7.328 8.379-9.014 14.502-.476 1.729-.753 3.566-.753 5.515 0 5.405 2.066 9.474 5.301 12.729 1.434 1.442 3.097 2.724 4.912 3.891.584.376 1.185.741 1.799 1.095 3.737 2.155 7.962 3.925 12.086 5.653.71.298 1.418.594 2.119.891.238.101.476.202.712.303.726.31 1.444.621 2.151.935.739.328 1.465.659 2.175.996.56.266 1.111.535 1.649.809 3.756 1.912 6.938 4.049 8.901 6.787 1.338 1.867 2.11 4.013 2.11 6.558 0 2.332-1.184 5.965-3.91 8.919-.027.029-.054.058-.081.086-.778.83-1.679 1.605-2.712 2.279-.037.024-.074.048-.112.072-.043.028-.086.055-.13.082l-24.102-.001c.005-.014.009-.028.014-.041.276-.828.552-1.655.822-2.477.813-2.469 1.579-4.892 2.163-7.133.034-.127.066-.254.098-.38.286-1.126.523-2.203.693-3.214.067-.4.124-.79.169-1.169.067-.554.108-1.084.121-1.585.003-.115.005-.228.005-.34 0-.899-.101-1.716-.287-2.451-.87-3.443-3.592-5.107-6.453-5.107-.139 0-.275.004-.409.012-1.335.079-2.446.547-3.27 1.279-.774.687-1.296 1.607-1.515 2.66-.077.37-.117.757-.117 1.156 0 .547.09 1.065.252 1.544zm67.418-49.272c.282 1.384.439 2.862.439 4.426v93.957c0 1.564-.157 3.041-.439 4.426-.232 1.135-.548 2.207-.931 3.214-1.973 5.188-5.72 8.627-8.842 9.849-.069.027-.137.052-.205.077-1.838.613-2.042 2.86.205 2.86h37.787c2.451 0 2.247-2.247.204-2.86-.068-.023-.136-.046-.204-.07-3.272-1.167-7.209-4.381-9.447-9.227-.547-1.186-.993-2.469-1.302-3.843-.312-1.385-.485-2.862-.485-4.426v-18.383h22.059c1.43 0 2.656-1.838.409-2.859-.14-.061-.277-.127-.409-.199-1.211-.663-2.042-1.84-2.042-3.682 0-.691.217-1.482.609-2.377.349-.796.837-1.675 1.433-2.639.956-1.542 2.192-3.302 3.586-5.288 2.408-3.43 5.29-7.534 8.02-12.36 1.296-2.29 2.557-4.742 3.718-7.362 3.171-7.159 5.589-15.568 5.888-25.328.021-.674.031-1.355.031-2.042 0-4.209-.47-8.129-1.358-11.696-3.335-13.395-12.571-21.802-24.991-21.802-.406 0-.81.013-1.212.04-.971.064-1.931.206-2.873.424-2.103.487-4.119 1.356-5.978 2.6-2.697 1.805-5.065 4.399-6.89 7.762v-7.762c0-.817-.613-1.43-1.43-1.43h-25.123c-2.247 0-2.043 2.247-.205 2.86.068.024.136.05.205.077 2.039.798 4.344 2.542 6.248 5.101 1.012 1.359 1.91 2.948 2.594 4.748.383 1.007.699 2.079.931 3.214zm16.78 66.519h13.276c.491-.826.977-1.665 1.458-2.519.427-.757.849-1.525 1.266-2.304 6.55-12.23 11.779-27.059 11.779-43.79 0-.7-.014-1.381-.042-2.042-.508-12.376-5.654-18.045-10.784-19.902-1.394-.505-2.787-.728-4.085-.728-2.08 0-4.231.471-6.165 1.596-.74.431-1.449.958-2.109 1.591-2.697 2.584-4.594 6.939-4.594 13.766zm35.248 10.86c.008-.017.018-.036.029-.056-.091.211-.123.239-.029.056zm16.236-19.5c3.719 11.513 11.804 20.649 22.787 23.103 1.91.427 3.909.652 5.987.652.913 0 1.798-.035 2.655-.102 4.932-.39 8.939-1.872 12.181-4.127 4.922-3.423 8.076-8.627 10.016-14.488.398-1.203.745-2.434 1.045-3.683.033-.135.066-.273.097-.409.052-.223.102-.446.151-.669.181-.831.342-1.669.485-2.51.582-3.417.862-6.897.932-10.253.005-.244.009-.487.012-.729 0-.841-.276-1.266-.944-1.39-.143-.027-.305-.04-.485-.04h-3.473c-.989 0-1.403.575-1.428 1.353-.001.025-.002.051-.002.077-.468 4.06-1.653 8.18-3.566 11.721-3.09 5.721-8.081 9.93-15.021 9.93-.817 0-1.713-.097-2.655-.31-.547-.124-1.109-.286-1.682-.491-2.716-.973-5.649-2.904-8.147-6.174-1.415-1.851-2.691-4.133-3.709-6.914-.311-.85-.599-1.748-.858-2.694-.474-1.725-.856-3.612-1.127-5.673l-.001-.008c.163-.021.324-.043.486-.066.594-.083 1.181-.177 1.76-.28 25.481-4.52 36.43-27.217 38.155-43.705.016-.153.031-.306.046-.458.054-.573.097-1.138.129-1.694.048-.824.071-1.628.071-2.41 0-3.509.678-5.349 1.507-6.443.412-.544.862-.903 1.284-1.191.092-.063.184-.123.273-.181.052-.033.103-.066.153-.098.246-.156.473-.302.664-.461 1.838-1.226 1.226-3.064-.817-3.064h-42.689c-1.43 0-2.656 1.43-.817 2.86.298.248.573.485.817.724.758.744 1.225 1.512 1.225 2.748 0 .852-.424 1.982-1.141 3.396-.028.054-.056.108-.084.164-.664 1.288-1.561 2.805-2.595 4.555l-.002.004c-1.34 2.267-2.91 4.924-4.505 7.979-1.464 2.806-2.949 5.949-4.294 9.434-1.602 4.152-3.007 8.791-3.942 13.926-.367 2.012-.661 4.1-.868 6.265-.219 2.306-.339 4.698-.339 7.179 0 .951.028 1.898.082 2.839.141 2.423.461 4.811.949 7.13.014.066.028.131.042.196.328 1.526.729 3.022 1.2 4.48zm29.979-32.98c3.076-3.479 5.406-7.367 7.077-11.418 1.816-4.405 2.853-9.003 3.222-13.481.07-.845.116-1.685.138-2.519h-18.178c-.007.014-.014.028-.021.043-.392.824-.772 1.65-1.139 2.476-2.482 5.586-4.392 11.206-5.745 16.826-.884 3.668-1.53 7.336-1.945 10.995-.32 2.83-.501 5.654-.546 8.468.457-.163.907-.332 1.351-.507 6.624-2.602 11.824-6.404 15.786-10.883zm18.608-50.913-.034.022c.054-.036.069-.044.034-.022zm22.817 85.589c0 1.564-.157 3.041-.44 4.425-.231 1.135-.547 2.208-.93 3.214-.749 1.969-1.753 3.686-2.882 5.125-1.845 2.354-4.023 3.966-5.961 4.724-.068.027-.136.053-.204.078-1.838.612-2.042 2.859.204 2.859h36.766c2.247 0 2.043-2.247.205-2.859-.068-.025-.136-.051-.205-.078-2.682-1.05-5.825-3.735-7.909-7.761-.342-.66-.655-1.357-.933-2.088-.383-1.006-.699-2.079-.931-3.214-.282-1.384-.439-2.861-.439-4.425v-120.92c0-.54-.172-.966-.485-1.247-.278-.251-.668-.387-1.149-.387h-24.92c-2.246 0-2.042 2.247-.204 2.86.068.025.136.05.204.077 3.122 1.222 6.87 4.661 8.843 9.849.383 1.007.699 2.079.93 3.214.283 1.385.44 2.862.44 4.426zm33.267-119.694c.067.025.136.05.204.077 3.122 1.222 6.869 4.661 8.842 9.849.383 1.007.699 2.079.931 3.214.282 1.385.44 2.862.44 4.426v102.128c0 1.564-.158 3.041-.44 4.425-.232 1.135-.548 2.208-.931 3.214-.278.731-.591 1.428-.933 2.088-2.084 4.026-5.227 6.711-7.909 7.761-.068.027-.137.053-.204.078-1.839.612-2.043 2.859.204 2.859h36.766c2.247 0 2.042-2.247.204-2.859-.068-.025-.136-.051-.204-.078-3.122-1.222-6.869-4.66-8.842-9.849-.383-1.006-.699-2.079-.931-3.214-.283-1.384-.44-2.861-.44-4.425v-120.92c0-1.021-.613-1.634-1.634-1.634h-24.919c-.522 0-.911.122-1.179.315-.437.317-.549.827-.38 1.319.081.235.225.465.429.668.233.233.544.431.926.558zm-327.451-12.883-.034.022c.054-.036.069-.044.034-.022zm-164.991 10.081c-.165-.044-.347-.067-.544-.067h-24.919c-2.247 0-2.043 2.247-.204 2.86.067.024.135.05.204.077 2.598 1.017 5.629 3.569 7.71 7.387.42.77.801 1.591 1.132 2.462.383 1.007.699 2.079.931 3.214.282 1.384.44 2.862.44 4.426v55.149c0 1.564-.158 3.041-.44 4.425-.232 1.135-.548 2.208-.931 3.214-.331.871-.712 1.693-1.132 2.463-2.081 3.817-5.112 6.369-7.71 7.386-.069.027-.137.053-.204.078-1.839.612-2.043 2.859.204 2.859h36.766c2.247 0 2.042-2.247.204-2.859-.068-.025-.136-.051-.204-.078-3.122-1.222-6.869-4.66-8.842-9.849-.383-1.006-.699-2.079-.931-3.214-.283-1.384-.44-2.861-.44-4.425v-41.873l18.179-20.017h11.847c-.457.779-.89 1.551-1.301 2.315-.923 1.716-1.737 3.395-2.452 5.036-1.314 3.012-2.301 5.896-3.041 8.649-.277 1.033-.52 2.047-.733 3.042-1.279 5.994-1.456 11.307-1.46 15.886-.001.068-.001.136-.001.204 0 4.249.252 8.703.824 13.186 1.492 11.68 5.164 23.564 12.249 32.567.728.91 1.455 1.334 2.472 1.415.125.01.253.015.387.015h20.63c1.745 0 2.386-1.104 0-2.789-.127-.09-.263-.181-.408-.275-2.719-1.747-6.175-4.233-9.492-8.684-.142-.19-.283-.384-.425-.582-.03-.043-.061-.086-.092-.129-.787-1.079-1.562-2.263-2.312-3.541-3.132-5.338-5.828-12.336-7.18-20.345-.581-3.443-.913-7.073-.925-10.838 0-.068 0-.136 0-.204 0-9.661.793-17.999 5.043-28.026.631-1.488 1.338-3.014 2.13-4.587.099-.196.199-.394.301-.592.161-.314.325-.63.494-.948.862-1.632 1.816-3.317 2.869-5.064.162-.269.327-.54.494-.811.314-.512.636-1.029.967-1.551.634-1 1.3-2.02 2-3.063.201-.301.406-.603.613-.907 1.225-1.838 1.021-3.064-.613-3.064h-41.055c-1.062 0-1.606.862-1.353 1.634.136.417.504.807 1.148 1.021.067.025.136.05.205.077 2.092.806 4.989 2.63 2.636 5.927-.17.238-.367.484-.594.737l-12.051 13.276v-21.038c0-.735-.317-1.258-.876-1.494-.068-.029-.139-.053-.214-.073zm56.188 30.588c-.152.464-.293.919-.424 1.365-1.484 5.069-1.908 9.942-1.908 16.593 0 5.649.951 10.792 2.332 15.122zm58.974 38.548c.336 1.594.751 3.156 1.242 4.676 3.719 11.513 11.804 20.649 22.786 23.103 1.911.427 3.91.652 5.988.652.913 0 1.798-.034 2.655-.102 7.438-.588 12.775-3.661 16.55-8.12 1.733-2.048 3.138-4.388 4.265-6.913 1.025-2.295 1.821-4.743 2.427-7.265.033-.135.066-.273.097-.409.052-.223.102-.446.151-.669.916-4.206 1.329-8.581 1.417-12.763.005-.244.009-.487.012-.729 0-1.021-.408-1.43-1.429-1.43h-3.473c-.989 0-1.403.575-1.428 1.353-.001.025-.002.051-.002.077-.468 4.06-1.653 8.18-3.566 11.721-3.09 5.721-8.081 9.93-15.021 9.93-.817 0-1.713-.097-2.655-.31-.547-.124-1.109-.286-1.682-.491-2.716-.973-5.649-2.904-8.147-6.173-1.415-1.852-2.691-4.134-3.709-6.915-.311-.85-.599-1.748-.858-2.694-.474-1.725-.856-3.612-1.127-5.673l-.001-.008c.163-.021.324-.043.486-.066.594-.083 1.181-.177 1.76-.28 25.481-4.52 36.43-27.217 38.155-43.705.016-.153.031-.306.046-.458.021-.228.041-.456.059-.682.028-.34.051-.677.07-1.012.048-.824.071-1.628.071-2.41 0-5.253 1.52-6.766 2.791-7.634.092-.063.184-.123.273-.181.052-.033.103-.066.153-.098.246-.157.473-.301.664-.461 1.838-1.226 1.226-3.064-.817-3.064h-42.689c-1.43 0-2.656 1.43-.817 2.86.298.249.573.485.817.725.758.743 1.225 1.511 1.225 2.747 0 .852-.424 1.982-1.141 3.396-.028.054-.056.108-.084.164-.665 1.289-1.562 2.807-2.597 4.559-1.98 3.351-4.464 7.554-6.785 12.636-1.644 3.599-3.206 7.639-4.449 12.13-.58 2.093-1.09 4.284-1.507 6.573-.367 2.012-.661 4.1-.868 6.265-.18 1.889-.292 3.837-.327 5.843-.008.443-.012.888-.012 1.336 0 .951.028 1.898.082 2.839.141 2.423.461 4.81.949 7.13zm31.221-28.304c3.076-3.479 5.407-7.367 7.077-11.418 1.816-4.404 2.853-9.003 3.222-13.481.07-.845.116-1.685.138-2.519h-18.178c-.007.014-.014.028-.021.043-.392.824-.772 1.65-1.139 2.476-2.482 5.586-4.392 11.206-5.745 16.826-.884 3.668-1.53 7.336-1.945 10.995-.32 2.83-.501 5.654-.546 8.468.457-.163.907-.332 1.351-.506 6.624-2.603 11.824-6.405 15.786-10.884zm-75.806-29.665h1.611v64.341c0 .475-.014.942-.042 1.401-.065 1.051-.201 2.06-.397 3.024-.195.955-.45 1.866-.754 2.731-.057.163-.116.324-.177.483m-103.433-80.354c1.838-.613 2.042-2.86-.204-2.86h-36.766c-1.375 0-1.832.841-1.559 1.634.173.504.641.988 1.354 1.226.068.024.136.05.205.077.552.216 1.124.502 1.702.854 2.69 1.639 5.516 4.724 7.14 8.995.383 1.007.699 2.079.93 3.214.283 1.384.44 2.862.44 4.426v40.238l-24.51 19.813v-78.843c0-1.021-.613-1.634-1.634-1.634h-24.92c-2.246 0-2.042 2.247-.204 2.86.068.024.136.05.204.077 3.123 1.222 6.87 4.661 8.843 9.849.383 1.007.699 2.079.93 3.214.283 1.384.44 2.862.44 4.426v55.149c0 1.564-.157 3.041-.44 4.425-.231 1.135-.547 2.208-.93 3.214-1.973 5.189-5.72 8.627-8.843 9.849-.068.027-.136.053-.204.078-1.838.612-2.042 2.859.204 2.859h32.886c.869 0 1.391-.578 1.413-1.211.02-.557-.348-1.157-1.209-1.444-.066-.024-.135-.05-.204-.076-2.3-.875-6.404-3.096-2.043-6.665l20.221-16.136v23.898c0 1.021.613 1.634 1.634 1.634h24.92c2.246 0 2.042-2.247.204-2.859-.068-.025-.136-.051-.204-.078-2.599-1.017-5.63-3.569-7.711-7.386-.42-.77-.801-1.592-1.132-2.463-.383-1.006-.699-2.079-.93-3.214-.283-1.384-.44-2.861-.44-4.425v-55.149c0-1.564.157-3.042.44-4.426.231-1.135.547-2.207.93-3.214.331-.871.712-1.692 1.132-2.462 2.081-3.818 5.112-6.37 7.711-7.387.068-.027.136-.053.204-.077zm-83.584 41.973c-.004-.337-.012-.673-.025-1.01-.264-7.148-2.38-14.201-5.946-20.733-3.436-6.292-8.217-12.1-13.987-17.045-.011-.009-.022-.018-.033-.028-.771-.659-1.559-1.304-2.365-1.931-.018-.014-.036-.028-.054-.042-1.605-1.25-3.277-2.435-5.009-3.548-.589-.378-1.184-.747-1.786-1.109l-.391-.23c-3.145-1.855-3.938-2.322-4.92.23-.944 2.445-3.431 4.694-6.55 7.395-.204.177-.411.355-.62.536-5.454 4.713-12.576 10.867-16.86 21.684-1.526 3.854-2.692 8.3-3.294 13.483-.115.994-.21 2.015-.282 3.064-.113 1.633-.172 3.334-.172 5.106 0 .17.001.34.003.51.083 7.249 1.948 14.39 5.269 20.995.849 1.69 1.794 3.344 2.829 4.957 3.023 4.71 6.813 9.06 11.234 12.871.01.008.02.017.031.026.697.6 1.409 1.186 2.137 1.759.058.045.116.091.175.137 1.77 1.382 3.629 2.681 5.569 3.887.445.277.895.549 1.348.816l.391.23c3.145 1.855 3.938 2.323 4.92-.23.926-2.373 3.607-4.632 6.975-7.468.045-.038.09-.076.136-.114 7.927-6.678 19.536-16.574 21.103-38.58.071-.989.121-2.002.149-3.04.019-.678.028-1.367.028-2.066 0-.171-.001-.342-.003-.512zm-28.996 37.582c.468.325.943.632 1.425.921.194-.214.385-.428.574-.643.139-.158.276-.316.413-.474 7.121-8.268 10.86-17.307 10.86-31.768 0-1.565-.093-3.159-.273-4.766-.579-5.153-2.055-10.44-4.243-15.323-.969-2.161-2.078-4.244-3.31-6.2-.698-1.107-1.435-2.174-2.208-3.192-.977-1.285-2.011-2.492-3.099-3.604-1.384-1.416-2.853-2.678-4.395-3.752-.483-.335-.972-.652-1.468-.95-.228.246-.454.494-.676.742-.186.209-.37.418-.552.628-6.964 8.038-10.619 17.218-10.619 31.515 0 1.565.093 3.159.273 4.766.711 6.337 2.78 12.876 5.862 18.617.532.99 1.094 1.957 1.684 2.894.853 1.355 1.765 2.65 2.731 3.868.778.982 1.591 1.915 2.437 2.79 1.439 1.49 2.971 2.814 4.584 3.931zm14.32 22.14s.017-.023.061-.07c-.038.047-.061.07-.061.07zm-78.5057-68.016c-.7801 2.377-.9329 4.526-.9329 5.946 0 7.08-1.8399 13.552-4.4113 17.723-2.5079 4.068-4.4204 4.269-5.1206 4.269-1.7019 0-4.1127-.555-6.5463-3.734-2.7627-3.609-6.458-11.882-6.458-29.083 0-8.619.7648-16.669 2.315-24.256.0095.187.02.371.0317.55.4566 7.475 2.6828 14.856 7.7884 20.599.692.779 1.4146 1.502 2.1634 2.17l2.9527 2.275c2.5781 1.702 5.3656 2.867 8.2179 3.541zm15.3892 4.628c-.2147.3-.3221.72-.3221 1.318 0 3.698-.3638 7.396-1.0673 10.954-2.5064 12.675-9.3243 23.571-19.3636 26.352-1.6181.448-3.32.686-5.101.686-12.6639 0-29.0043-10.417-29.0043-48.817 0-7.162.4769-14.048 1.4527-20.686 2.2294-15.168 7.0629-29.043 14.7629-41.953.1763-.295.3541-.59.5333-.885h27.7788c-.1604.295-.3184.591-.4741.885-2.743 5.195-4.7689 10.333-6.2425 15.115-.9807 3.183-1.7169 6.208-2.2571 8.988-.1005.518-.1943 1.027-.2816 1.527-.9406 5.388-1.1289 9.722-.9575 12.294.019.316.0422.626.0697.931.5257 5.828 2.5852 9.527 5.3282 11.521 1.7423 1.267 3.7603 1.846 5.8361 1.846.2764 0 .549-.013.8171-.037 1.4998-.135 2.8609-.641 3.9834-1.426 1.9388-1.357 3.1655-3.545 3.1655-6.095 0-2.391-1.1628-4.626-3.0108-5.991-.0913-.067-.1842-.132-.2788-.195-.3039-.203-.6244-.383-.9598-.537-.8769-.403-1.8548-.63-2.8995-.63-.2731 0-.5462.02-.8171.059-.9445.133-1.8616.486-2.6553.962-.0189-.308-.0347-.614-.0474-.92-.0008-.019-.0016-.038-.0023-.057-.0081-.199-.0149-.398-.0204-.597-.1515-5.47.6682-10.606 2.1162-15.4 1.9439-6.437 5.0204-12.26 8.3999-17.456.8732-1.342 1.7666-2.643 2.6659-3.902.5463-.764 1.0948-1.513 1.6422-2.246 1.9891-2.665 3.9648-5.124 5.7732-7.374.5991-.746 1.1798-1.469 1.7366-2.168.4233-.532.8323-1.051 1.2253-1.556 1.226-1.634.204-2.656-1.2253-2.656h-59.2341c-1.8383 0-2.6553 1.634-.817 2.86.0905.06.1781.12.2628.178.2007.139.3851.274.5542.406 1.2079.947 1.6341 1.798 1.6341 3.501 0 .614-.1914 1.362-.5411 2.246-.273.69-.6426 1.463-1.093 2.32-.8642 1.643-2.0262 3.595-3.3756 5.862-4.8778 8.193-12.205 20.501-16.7706 37.231-2.4912 9.13-4.1602 19.575-4.1602 31.388 0 33.702 16.5447 59.03 43.0979 59.03 5.995 0 11.1219-1.232 15.4939-3.376 8.9093-4.368 14.6836-12.524 18.2802-21.762 2.2651-5.819 3.6664-12.067 4.4432-18.069.1824-1.41.3304-2.806.447-4.181.2415-2.845.3485-5.594.3485-8.17 0-1.43 0-1.838-1.8383-2.042-1.8383-.205-3.6766-.205-5.5149 0-.7125.118-1.2179.306-1.5162.724zm-58.6271-71.973c.1778.118.1344.106-.0548-.037.0183.012.0365.025.0548.037zm-4.1152-12.818c.0651-.185.1178-.288.1178-.288s-.0258.088-.1178.288zm323.2688 54.858h4.042z" fill-rule="evenodd"/><path d="m89.3565 285.337c-.2147.3-.3221.72-.3221 1.318 0 3.698-.3638 7.396-1.0673 10.954-2.5064 12.675-9.3243 23.571-19.3636 26.352-1.6181.448-3.32.686-5.101.686-12.6639 0-29.0043-10.417-29.0043-48.817 0-7.162.4769-14.048 1.4527-20.686 2.2294-15.168 7.0629-29.043 14.7629-41.953.1763-.295.3541-.59.5333-.885h27.7788c-.1604.295-.3184.591-.4741.885-2.743 5.195-4.7689 10.333-6.2425 15.115-.9807 3.183-1.7169 6.208-2.2571 8.988-.1005.518-.1943 1.027-.2816 1.527-.9406 5.388-1.1289 9.722-.9575 12.294.019.316.0422.626.0697.931.5257 5.828 2.5852 9.527 5.3282 11.521 1.7423 1.267 3.7603 1.846 5.8361 1.846.2764 0 .549-.013.8171-.037 1.4998-.135 2.8609-.641 3.9834-1.426 1.9388-1.357 3.1655-3.545 3.1655-6.095 0-2.391-1.1628-4.626-3.0108-5.991-.0913-.067-.1842-.132-.2788-.195-.3039-.203-.6244-.383-.9598-.537-.8769-.403-1.8548-.63-2.8995-.63-.2731 0-.5462.02-.8171.059-.9445.133-1.8616.486-2.6553.962-.0189-.308-.0347-.614-.0474-.92l-.0023-.057c-.0081-.199-.0149-.398-.0204-.597-.1515-5.47.6682-10.606 2.1162-15.4 1.9439-6.437 5.0204-12.26 8.3999-17.456.8732-1.342 1.7666-2.643 2.6659-3.902.5463-.764 1.0948-1.513 1.6422-2.246 1.9891-2.665 3.9648-5.124 5.7732-7.374.5991-.746 1.1798-1.469 1.7366-2.168.4233-.532.8323-1.051 1.2253-1.556 1.226-1.634.204-2.656-1.2253-2.656h-59.2341c-1.8383 0-2.6553 1.634-.817 2.86.0905.06.1781.12.2628.178.2007.139.3851.274.5542.406 1.2079.947 1.6341 1.798 1.6341 3.501 0 .614-.1914 1.362-.5411 2.246-.273.69-.6426 1.463-1.093 2.32-.8642 1.643-2.0262 3.595-3.3756 5.862-4.8778 8.193-12.205 20.501-16.7706 37.231-2.4912 9.13-4.1602 19.575-4.1602 31.388 0 33.702 16.5447 59.03 43.0979 59.03 5.995 0 11.1219-1.232 15.4939-3.376 8.9093-4.368 14.6836-12.524 18.2802-21.762 2.2651-5.819 3.6664-12.067 4.4432-18.069.1824-1.41.3304-2.806.447-4.181.2415-2.845.3485-5.594.3485-8.17 0-1.43 0-1.838-1.8383-2.042-1.8383-.205-3.6766-.205-5.5149 0-.7125.118-1.2179.306-1.5162.724z"/><path clip-rule="evenodd" d="m167.124 287.993c.013.337.021.673.025 1.01.002.17.003.341.003.512 0 .699-.009 1.388-.028 2.066-.028 1.038-.078 2.051-.149 3.04-1.567 22.006-13.176 31.902-21.103 38.58l-.136.114c-3.368 2.836-6.049 5.095-6.975 7.468-.982 2.553-1.775 2.085-4.92.23l-.391-.23c-.453-.267-.903-.539-1.348-.816-1.94-1.206-3.799-2.505-5.569-3.887l-.175-.137c-.728-.573-1.44-1.159-2.137-1.759l-.031-.026c-4.421-3.811-8.211-8.161-11.234-12.871-1.035-1.613-1.98-3.267-2.829-4.957-3.321-6.605-5.186-13.746-5.269-20.995-.002-.17-.003-.34-.003-.51 0-1.772.059-3.473.172-5.106.072-1.049.167-2.07.282-3.064.602-5.183 1.768-9.629 3.294-13.483 4.284-10.817 11.406-16.971 16.86-21.684l.62-.536c3.119-2.701 5.606-4.95 6.55-7.395.982-2.552 1.775-2.085 4.92-.23l.391.23c.602.362 1.197.731 1.786 1.109 1.732 1.113 3.404 2.298 5.009 3.548l.054.042c.806.627 1.594 1.272 2.365 1.931l.033.028c5.77 4.945 10.551 10.753 13.987 17.045 3.566 6.532 5.682 13.585 5.946 20.733zm-27.546 39.513c-.482-.289-.957-.596-1.425-.921-1.613-1.117-3.145-2.441-4.584-3.931-.846-.875-1.659-1.808-2.437-2.79-.966-1.218-1.878-2.513-2.731-3.868-.59-.937-1.152-1.904-1.684-2.894-3.082-5.741-5.151-12.28-5.862-18.617-.18-1.607-.273-3.201-.273-4.766 0-14.297 3.655-23.477 10.619-31.515.182-.21.366-.419.552-.628.222-.248.448-.496.676-.742.496.298.985.615 1.468.95 1.542 1.074 3.011 2.336 4.395 3.752 1.088 1.112 2.122 2.319 3.099 3.604.773 1.018 1.51 2.085 2.208 3.192 1.232 1.956 2.341 4.039 3.31 6.2 2.188 4.883 3.664 10.17 4.243 15.323.18 1.607.273 3.201.273 4.766 0 14.461-3.739 23.5-10.86 31.768-.137.158-.274.316-.413.474-.189.215-.38.429-.574.643z" fill-rule="evenodd"/><path d="m250.733 247.03c1.838-.613 2.042-2.86-.204-2.86h-36.766c-1.375 0-1.832.841-1.559 1.634.173.504.641.988 1.354 1.226.068.024.136.05.205.077.552.216 1.124.502 1.702.854 2.69 1.639 5.516 4.724 7.14 8.995.383 1.007.699 2.079.93 3.214.283 1.384.44 2.862.44 4.426v40.238l-24.51 19.813v-78.843c0-1.021-.613-1.634-1.634-1.634h-24.92c-2.246 0-2.042 2.247-.204 2.86.068.024.136.05.204.077 3.123 1.222 6.87 4.661 8.843 9.849.383 1.007.699 2.079.93 3.214.283 1.384.44 2.862.44 4.426v55.149c0 1.564-.157 3.041-.44 4.425-.231 1.135-.547 2.208-.93 3.214-1.973 5.189-5.72 8.627-8.843 9.849-.068.027-.136.053-.204.078-1.838.612-2.042 2.859.204 2.859h32.886c.869 0 1.391-.578 1.413-1.211.02-.557-.348-1.157-1.209-1.444-.066-.024-.135-.05-.204-.076-2.3-.875-6.404-3.096-2.043-6.665l20.221-16.136v23.898c0 1.021.613 1.634 1.634 1.634h24.92c2.246 0 2.042-2.247.204-2.859-.068-.025-.136-.051-.204-.078-2.599-1.017-5.63-3.569-7.711-7.386-.42-.77-.801-1.592-1.132-2.463-.383-1.006-.699-2.079-.93-3.214-.283-1.384-.44-2.861-.44-4.425v-55.149c0-1.564.157-3.042.44-4.426.231-1.135.547-2.207.93-3.214.331-.871.712-1.692 1.132-2.462 2.081-3.818 5.112-6.37 7.711-7.387.068-.027.136-.053.204-.077z"/><path d="m282.804 244.17c.197 0 .379.023.544.067.075.02.146.044.214.073.559.236.876.759.876 1.494v21.038l12.051-13.276c.227-.253.424-.499.594-.737 2.353-3.297-.544-5.121-2.636-5.927-.069-.027-.138-.052-.205-.077-.644-.214-1.012-.604-1.148-1.021-.253-.772.291-1.634 1.353-1.634h41.055c1.634 0 1.838 1.226.613 3.064-.207.304-.412.606-.613.907-.7 1.043-1.366 2.063-2 3.063-.331.522-.653 1.039-.967 1.551-.167.271-.332.542-.494.811-1.053 1.747-2.007 3.432-2.869 5.064-.169.318-.333.634-.494.948-.102.198-.202.396-.301.592-.792 1.573-1.499 3.099-2.13 4.587-4.25 10.027-5.043 18.365-5.043 28.026v.204c.012 3.765.344 7.395.925 10.838 1.352 8.009 4.048 15.007 7.18 20.345.75 1.278 1.525 2.462 2.312 3.541l.092.129c.142.198.283.392.425.582 3.317 4.451 6.773 6.937 9.492 8.684.145.094.281.185.408.275 2.386 1.685 1.745 2.789 0 2.789h-20.63c-.134 0-.262-.005-.387-.015-1.017-.081-1.744-.505-2.472-1.415-7.085-9.003-10.757-20.887-12.249-32.567-.572-4.483-.824-8.937-.824-13.186l.001-.204c.004-4.579.181-9.892 1.46-15.886.213-.995.456-2.009.733-3.042.74-2.753 1.727-5.637 3.041-8.649.715-1.641 1.529-3.32 2.452-5.036.411-.764.844-1.536 1.301-2.315h-11.847l-18.179 20.017v41.873c0 1.564.157 3.041.44 4.425.232 1.135.548 2.208.931 3.214 1.973 5.189 5.72 8.627 8.842 9.849.068.027.136.053.204.078 1.838.612 2.043 2.859-.204 2.859h-36.766c-2.247 0-2.043-2.247-.204-2.859.067-.025.135-.051.204-.078 2.598-1.017 5.629-3.569 7.71-7.386.42-.77.801-1.592 1.132-2.463.383-1.006.699-2.079.931-3.214.282-1.384.44-2.861.44-4.425v-55.149c0-1.564-.158-3.042-.44-4.426-.232-1.135-.548-2.207-.931-3.214-.331-.871-.712-1.692-1.132-2.462-2.081-3.818-5.112-6.37-7.71-7.387-.069-.027-.137-.053-.204-.077-1.839-.613-2.043-2.86.204-2.86z"/><path d="m339.112 276.19c.131-.446.272-.901.424-1.365v33.08c-1.381-4.33-2.332-9.473-2.332-15.122 0-6.651.424-11.524 1.908-16.593z"/><path d="m355.536 255.404h-1.611l.241 71.98 1.328-6.238c.028-.459.042-.926.042-1.401z"/><path clip-rule="evenodd" d="m399.752 318.049c-.491-1.52-.906-3.082-1.242-4.676-.488-2.32-.808-4.707-.949-7.13-.054-.941-.082-1.888-.082-2.839 0-.448.004-.893.012-1.336.035-2.006.147-3.954.327-5.843.207-2.165.501-4.253.868-6.265.417-2.289.927-4.48 1.507-6.573 1.243-4.491 2.805-8.531 4.449-12.13 2.321-5.082 4.805-9.285 6.785-12.636 1.035-1.752 1.932-3.27 2.597-4.559l.084-.164c.717-1.414 1.141-2.544 1.141-3.396 0-1.236-.467-2.004-1.225-2.747-.244-.24-.519-.476-.817-.725-1.839-1.43-.613-2.86.817-2.86h42.689c2.043 0 2.655 1.838.817 3.064-.191.16-.418.304-.664.461l-.153.098c-.089.058-.181.118-.273.181-1.271.868-2.791 2.381-2.791 7.634 0 .782-.023 1.586-.071 2.41-.019.335-.042.672-.07 1.012-.018.226-.038.454-.059.682-.015.152-.03.305-.046.458-1.725 16.488-12.674 39.185-38.155 43.705-.579.103-1.166.197-1.76.28-.162.023-.323.045-.486.066l.001.008c.271 2.061.653 3.948 1.127 5.673.259.946.547 1.844.858 2.694 1.018 2.781 2.294 5.063 3.709 6.915 2.498 3.269 5.431 5.2 8.147 6.173.573.205 1.135.367 1.682.491.942.213 1.838.31 2.655.31 6.94 0 11.931-4.209 15.021-9.93 1.913-3.541 3.098-7.661 3.566-11.721 0-.026.001-.052.002-.077.025-.778.439-1.353 1.428-1.353h3.473c1.021 0 1.429.409 1.429 1.43-.003.242-.007.485-.012.729-.088 4.182-.501 8.557-1.417 12.763-.049.223-.099.446-.151.669-.031.136-.064.274-.097.409-.606 2.522-1.402 4.97-2.427 7.265-1.127 2.525-2.532 4.865-4.265 6.913-3.775 4.459-9.112 7.532-16.55 8.12-.857.068-1.742.102-2.655.102-2.078 0-4.077-.225-5.988-.652-10.982-2.454-19.067-11.59-22.786-23.103zm37.056-44.398c-1.67 4.051-4.001 7.939-7.077 11.418-3.962 4.479-9.162 8.281-15.786 10.884-.444.174-.894.343-1.351.506.045-2.814.226-5.638.546-8.468.415-3.659 1.061-7.327 1.945-10.995 1.353-5.62 3.263-11.24 5.745-16.826.367-.826.747-1.652 1.139-2.476l.021-.043h18.178c-.022.834-.068 1.674-.138 2.519-.369 4.478-1.406 9.077-3.222 13.481z" fill-rule="evenodd"/><path d="m464.534 340.17c-.701 0-1.164-.219-1.412-.538-.548-.705-.057-1.9 1.208-2.321.067-.025.135-.051.204-.078l.052-.02c3.111-1.24 6.828-4.669 8.79-9.829.383-1.006.699-2.079.931-3.214.282-1.384.44-2.861.44-4.425v-55.149c0-1.564-.158-3.042-.44-4.426-.232-1.135-.548-2.207-.931-3.214-.342-.9-.738-1.747-1.174-2.539-2.08-3.775-5.087-6.3-7.668-7.31-.069-.027-.137-.053-.204-.077-1.839-.613-2.043-2.86.204-2.86h24.919c1.021 0 1.634.613 1.634 1.634v19.404l10.826-11.438c.274-.274.518-.543.734-.806l.039-.049c.261-.323.479-.639.656-.947.869-1.511.764-2.846 0-4.086-.265-.43-.61-.85-1.021-1.261-.291-.291-.489-.565-.606-.817-.457-.986.326-1.634 1.627-1.634h25.532c1.226 0 1.634 1.021.817 2.043-.276.294-.548.591-.817.891-3.038 3.39-5.6 7.132-7.656 10.858-.407.737-.794 1.475-1.161 2.208-.087.175-.174.349-.259.523-.71 1.454-1.341 2.891-1.89 4.289-.232.591-.45 1.175-.653 1.751-.795 2.254-1.366 4.375-1.703 6.263-.241 1.349-.363 2.578-.363 3.651 0 .138.001.275.002.408.005.537.021 1.033.048 1.496.083 1.458.27 2.587.563 3.611 1.225-.817 2.451-1.226 3.472-1.226.239 0 .473.011.702.033 3.308.316 5.63 2.861 5.63 6.299 0 2.347-1.082 4.278-2.821 5.368-.985.617-2.181.964-3.511.964-3.963 0-6.663-2.528-8.25-6.332-.373-.894-.685-1.859-.937-2.879-.046-.184-.089-.37-.131-.557-.299-1.345-.499-2.777-.603-4.259-.058-.825-.087-1.667-.087-2.518 0-.134.001-.271.002-.408.011-.874.057-1.809.14-2.792.031-.367.068-.74.11-1.12.156-1.418.387-2.919.702-4.466.095-.467.198-.937.308-1.411.27-1.159.586-2.337.952-3.52.041-.132.082-.263.124-.395.125-.39.254-.78.389-1.169.186-.536.382-1.071.589-1.604.301-.777.625-1.55.973-2.315h-5.719l-16.749 17.77v44.12c0 1.564.157 3.041.44 4.425.232 1.135.548 2.208.931 3.214 1.973 5.189 5.72 8.627 8.842 9.849.068.027.136.053.204.078 1.838.612 2.043 2.859-.204 2.859z"/><path d="m535.856 357.337c-.169-.283-.31-.587-.419-.907-.162-.479-.252-.997-.252-1.544 0-.399.04-.786.117-1.156.219-1.053.741-1.973 1.515-2.66.824-.732 1.935-1.2 3.27-1.279.134-.008.27-.012.409-.012 2.861 0 5.583 1.664 6.453 5.107.186.735.287 1.552.287 2.451 0 .112-.002.225-.005.34-.013.501-.054 1.031-.121 1.585-.045.379-.102.769-.169 1.169-.17 1.011-.407 2.088-.693 3.214-.032.126-.064.253-.098.38-.584 2.241-1.35 4.664-2.163 7.133-.27.822-.546 1.649-.822 2.477l-.014.041 24.102.001.13-.082.112-.072c1.033-.674 1.934-1.449 2.712-2.279l.081-.086c2.726-2.954 3.91-6.587 3.91-8.919 0-2.545-.772-4.691-2.11-6.558-1.963-2.738-5.145-4.875-8.901-6.787-.538-.274-1.089-.543-1.649-.809-.71-.337-1.436-.668-2.175-.996-.707-.314-1.425-.625-2.151-.935l-.712-.303c-.701-.297-1.409-.593-2.119-.891-4.124-1.728-8.349-3.498-12.086-5.653-.614-.354-1.215-.719-1.799-1.095-1.815-1.167-3.478-2.449-4.912-3.891-3.235-3.255-5.301-7.324-5.301-12.729 0-1.949.277-3.786.753-5.515 1.686-6.123 5.86-10.897 9.014-14.502 1.01-1.155 1.915-2.19 2.6-3.111.375-.505.685-.975.909-1.413.263-.511.409-.977.409-1.399 0-.565-.125-1.004-.409-1.388-.23-.311-.564-.585-1.021-.859-1.021-.613-.817-2.247 1.021-2.247h40.034c1.022 0 2.043.613.409 2.655l-.409.543-.465.617c-1.179 1.56-2.461 3.255-3.699 5.071-.401.587-.796 1.187-1.183 1.798-.672 1.064-1.316 2.164-1.906 3.297-.19.366-.375.736-.553 1.109-.125.26-.246.522-.364.786l-.055.124c-.337.763-.645 1.539-.917 2.329-.732 2.128-1.202 4.351-1.271 6.656l-.004.139c.438-.292.979-.48 1.551-.563.095-.014.191-.025.288-.033.135-.012.272-.017.408-.017.912 0 1.751.264 2.46.719.465.299.873.678 1.21 1.119.647.846 1.028 1.917 1.028 3.064 0 .168-.009.334-.027.497-.137 1.247-.782 2.312-1.671 3.083-.853.739-1.931 1.207-3 1.303-.136.013-.273.019-.408.019-1.264 0-2.391-.352-3.345-.965-1.338-.86-2.334-2.233-2.891-3.869l-.023-.068c-.099-.299-.183-.607-.252-.921-.151-.686-.23-1.405-.23-2.143 0-.42.006-.831.018-1.233l.003-.103c.053-1.725.207-3.285.426-4.722.077-.505.162-.994.253-1.471.19-.991.408-1.925.639-2.82.226-.872.465-1.707.704-2.519h-22.264c-.795.696-1.53 1.464-2.187 2.294-.059.074-.118.15-.175.225-1.94 2.537-3.153 5.618-3.153 8.919 0 2.145.672 3.95 1.853 5.515 2.12 2.809 5.879 4.846 10.333 6.681.488.201.983.4 1.486.597.222.087.446.173.67.26 1.564.6 3.189 1.189 4.84 1.786l.005.002c1.231.446 2.476.896 3.72 1.361 1.038.388 2.076.786 3.105 1.198 1.578.634 3.135 1.302 4.639 2.026.618.297 1.227.603 1.826.92 2.24 1.186 4.327 2.52 6.147 4.069 2.838 2.418 5.026 5.362 6.132 9.093.079.264.152.533.219.805.415 1.678.619 3.51.574 5.517-.038 1.921-.315 3.719-.793 5.419-.086.307-.179.612-.278.913-2.269 6.885-7.847 12.164-14.044 17.566-.473.426-.826.863-1.073 1.306-.056.1-.107.201-.152.302-.442.983-.388 1.988 0 2.962.154.389.362.773.612 1.149.817 1.226.205 1.634-.612 1.634h-43.711c-1.226 0-1.634-.817-1.021-1.838.342-.439.682-.878 1.021-1.317 2.281-2.963 4.473-5.954 6.485-9.002.365-.553.724-1.107 1.076-1.664.38-.599.752-1.201 1.116-1.806l.224-.373c1.059-1.776 2.047-3.575 2.946-5.401.069-.139.137-.278.204-.418.138-.285.275-.572.409-.859.843-1.807 1.597-3.642 2.246-5.509-.685.514-1.515.741-2.246.8-.141.012-.277.017-.409.017-1.668 0-3.336-.946-4.231-2.451z"/><path d="m514.807 327.718c-1.966-2.303-4.417-4.003-6.858-5.057-.039-.049-.083-.108-.131-.177-.322-.471-.731-1.332-.731-2.739v-12.544l.714-.476c2.493 1.369 5.344 2.339 8.553 2.709-1.247 3.595-2.071 7.657-2.071 12.158 0 2.146.183 4.187.524 6.126z"/><path clip-rule="evenodd" d="m602.855 307.158c.282 1.384.439 2.862.439 4.426v93.957c0 1.564-.157 3.041-.439 4.426-.232 1.135-.548 2.207-.931 3.214-1.973 5.188-5.72 8.627-8.842 9.849-.069.027-.137.052-.205.077-1.838.613-2.042 2.86.205 2.86h37.787c2.451 0 2.247-2.247.204-2.86-.068-.023-.136-.046-.204-.07-3.272-1.167-7.209-4.381-9.447-9.227-.547-1.186-.993-2.469-1.302-3.843-.312-1.385-.485-2.862-.485-4.426v-18.383h22.059c1.43 0 2.656-1.838.409-2.859-.14-.061-.277-.127-.409-.199-1.211-.663-2.042-1.84-2.042-3.682 0-.691.217-1.482.609-2.377.349-.796.837-1.675 1.433-2.639.956-1.542 2.192-3.302 3.586-5.288 2.408-3.43 5.29-7.534 8.02-12.36 1.296-2.29 2.557-4.742 3.718-7.362 3.171-7.159 5.589-15.568 5.888-25.328.021-.674.031-1.355.031-2.042 0-4.209-.47-8.129-1.358-11.696-3.335-13.395-12.571-21.802-24.991-21.802-.406 0-.81.013-1.212.04-.971.064-1.931.206-2.873.424-2.103.487-4.119 1.356-5.978 2.6-2.697 1.805-5.065 4.399-6.89 7.762v-7.762c0-.817-.613-1.43-1.43-1.43h-25.123c-2.247 0-2.043 2.247-.205 2.86.068.024.136.05.205.077 2.039.798 4.344 2.542 6.248 5.101 1.012 1.359 1.91 2.948 2.594 4.748.383 1.007.699 2.079.931 3.214zm30.056 66.519c.491-.826.977-1.665 1.458-2.519.427-.757.849-1.525 1.266-2.304 6.55-12.23 11.779-27.059 11.779-43.79 0-.7-.014-1.381-.042-2.042-.508-12.376-5.654-18.045-10.784-19.902-1.394-.505-2.787-.728-4.085-.728-2.08 0-4.231.471-6.165 1.596-.74.431-1.449.958-2.109 1.591-2.697 2.584-4.594 6.939-4.594 13.766v54.332z" fill-rule="evenodd"/><path clip-rule="evenodd" d="m693.906 388.14c-10.983-2.454-19.068-11.59-22.787-23.103-.471-1.458-.872-2.954-1.2-4.48l-.042-.196c-.488-2.319-.808-4.707-.949-7.13-.054-.941-.082-1.888-.082-2.839 0-2.481.12-4.873.339-7.179.207-2.165.501-4.253.868-6.265.935-5.135 2.34-9.774 3.942-13.926 1.345-3.485 2.83-6.628 4.294-9.434 1.595-3.055 3.165-5.712 4.505-7.979l.002-.004c1.034-1.75 1.931-3.267 2.595-4.555l.084-.164c.717-1.414 1.141-2.544 1.141-3.396 0-1.236-.467-2.004-1.225-2.748-.244-.239-.519-.476-.817-.724-1.839-1.43-.613-2.86.817-2.86h42.689c2.043 0 2.655 1.838.817 3.064-.191.159-.418.305-.664.461l-.153.098c-.089.058-.181.118-.273.181-.422.288-.872.647-1.284 1.191-.829 1.094-1.507 2.934-1.507 6.443 0 .782-.023 1.586-.071 2.41-.032.556-.075 1.121-.129 1.694-.015.152-.03.305-.046.458-1.725 16.488-12.674 39.185-38.155 43.705-.579.103-1.166.197-1.76.28-.162.023-.323.045-.486.066l.001.008c.271 2.061.653 3.948 1.127 5.673.259.946.547 1.844.858 2.694 1.018 2.781 2.294 5.063 3.709 6.914 2.498 3.27 5.431 5.201 8.147 6.174.573.205 1.135.367 1.682.491.942.213 1.838.31 2.655.31 6.94 0 11.931-4.209 15.021-9.93 1.913-3.541 3.098-7.661 3.566-11.721 0-.026.001-.052.002-.077.025-.778.439-1.353 1.428-1.353h3.473c.18 0 .342.013.485.04.668.124.944.549.944 1.39-.003.242-.007.485-.012.729-.07 3.356-.35 6.836-.932 10.253-.143.841-.304 1.679-.485 2.51-.049.223-.099.446-.151.669-.031.136-.064.274-.097.409-.3 1.249-.647 2.48-1.045 3.683-1.94 5.861-5.094 11.065-10.016 14.488-3.242 2.255-7.249 3.737-12.181 4.127-.857.067-1.742.102-2.655.102-2.078 0-4.077-.225-5.987-.652zm14.269-67.501c-1.671 4.051-4.001 7.939-7.077 11.418-3.962 4.479-9.162 8.281-15.786 10.883-.444.175-.894.344-1.351.507.045-2.814.226-5.638.546-8.468.415-3.659 1.061-7.327 1.945-10.995 1.353-5.62 3.263-11.24 5.745-16.826.367-.826.747-1.652 1.139-2.476l.021-.043h18.178c-.022.834-.068 1.674-.138 2.519-.369 4.478-1.406 9.076-3.222 13.481z" fill-rule="evenodd"/><path d="m742.523 366.733c0 1.564-.157 3.041-.44 4.425-.231 1.135-.547 2.208-.93 3.214-.749 1.969-1.753 3.686-2.882 5.125-1.845 2.354-4.023 3.966-5.961 4.724-.068.027-.136.053-.204.078-1.838.612-2.042 2.859.204 2.859h36.766c2.247 0 2.043-2.247.205-2.859-.068-.025-.136-.051-.205-.078-2.682-1.05-5.825-3.735-7.909-7.761-.342-.66-.655-1.357-.933-2.088-.383-1.006-.699-2.079-.931-3.214-.282-1.384-.439-2.861-.439-4.425v-120.92c0-.54-.172-.966-.485-1.247-.278-.251-.668-.387-1.149-.387h-24.92c-2.246 0-2.042 2.247-.204 2.86.068.025.136.05.204.077 3.122 1.222 6.87 4.661 8.843 9.849.383 1.007.699 2.079.93 3.214.283 1.385.44 2.862.44 4.426z"/><path d="m775.994 247.116c-.068-.027-.137-.052-.204-.077-.382-.127-.693-.325-.926-.558-.204-.203-.348-.433-.429-.668-.169-.492-.057-1.002.38-1.319.268-.193.657-.315 1.179-.315h24.919c1.021 0 1.634.613 1.634 1.634v120.92c0 1.564.157 3.041.44 4.425.232 1.135.548 2.208.931 3.214 1.973 5.189 5.72 8.627 8.842 9.849.068.027.136.053.204.078 1.838.612 2.043 2.859-.204 2.859h-36.766c-2.247 0-2.043-2.247-.204-2.859.067-.025.136-.051.204-.078 2.682-1.05 5.825-3.735 7.909-7.761.342-.66.655-1.357.933-2.088.383-1.006.699-2.079.931-3.214.282-1.384.44-2.861.44-4.425v-102.128c0-1.564-.158-3.041-.44-4.426-.232-1.135-.548-2.207-.931-3.214-1.973-5.188-5.72-8.627-8.842-9.849z"/><path d="m73.9673 280.709c-.7801 2.377-.9329 4.526-.9329 5.946 0 7.08-1.8399 13.552-4.4113 17.723-2.5079 4.068-4.4204 4.269-5.1206 4.269-1.7019 0-4.1127-.555-6.5463-3.734-2.7627-3.609-6.458-11.882-6.458-29.083 0-8.619.7648-16.669 2.315-24.256.0095.187.02.371.0317.55.4566 7.475 2.6828 14.856 7.7884 20.599.692.779 1.4146 1.502 2.1634 2.17l2.9527 2.275c2.5781 1.702 5.3656 2.867 8.2179 3.541z"/></g><path d="m464.533 340.17c-2.247 0-2.043-2.247-.204-2.859 4.493-1.634 10.417-7.966 10.417-17.566v-55.149c0-9.6-5.924-15.932-10.417-17.566-1.839-.613-2.043-2.86.204-2.86h24.919c1.021 0 1.634.613 1.634 1.634v19.404l10.826-11.438c2.859-2.859 2.451-5.106.408-7.149-1.43-1.43-.613-2.451 1.021-2.451h25.532c1.226 0 1.634 1.021.817 2.043-9.395 10.008-14.502 23.489-14.502 30.434 0 2.451.204 4.085.613 5.515 1.225-.817 2.451-1.226 3.472-1.226 3.677 0 6.332 2.655 6.332 6.332s-2.655 6.332-6.332 6.332c-6.944 0-10.008-7.762-10.008-16.545 0-5.106 1.225-12.459 4.289-19.2h-5.719l-16.749 17.77v44.12c0 9.6 5.923 15.932 10.417 17.566 1.838.612 2.043 2.859-.204 2.859z" fill="#f5f5f5"/><path d="m428.525 341.804c-18.792 0-31.047-18.383-31.047-38.4 0-30.23 17.77-47.387 17.77-52.902 0-1.634-.817-2.451-2.042-3.472-1.839-1.43-.613-2.86.817-2.86h42.689c2.043 0 2.655 1.838.817 3.064-1.225 1.021-3.881 1.43-3.881 8.374 0 16.954-11.029 44.732-40.647 48.613 2.247 17.158 12.256 22.264 18.179 22.264 11.234 0 17.362-11.03 18.587-21.651 0-.817.409-1.43 1.43-1.43h3.473c1.021 0 1.429.409 1.429 1.43-.204 16.749-5.515 36.97-27.574 36.97zm-15.932-45.345c19.404-6.944 27.166-23.897 27.574-38.808h-18.178c-6.128 12.868-9.192 25.94-9.396 38.808z" fill="#f5f5f5"/><path d="m345.323 340.17c-2.247 0-2.043-2.247-.205-2.859 4.494-1.634 10.418-7.966 10.418-17.566v-64.341h-10.622c-1.225 0-1.021-1.021-1.021-1.838.204-2.86-.204-4.902-1.226-6.945-.817-1.634-1.021-2.451.817-2.451h12.052v-10.621c0-10.621-1.43-11.643-4.086-13.277-1.225-.817-2.246-2.247-.408-3.268l21.855-11.847c1.839-1.021 2.656.409 2.043 1.839-2.043 5.719-3.064 9.191-3.064 16.136v21.038h19.813c1.021 0 1.634.613 1.225 1.634-3.268 8.579-7.149 21.651-8.17 31.864.409-.204 1.021-.204 1.634-.204 3.268 0 5.923 2.655 5.923 5.923s-3.063 5.924-6.331 5.924c-3.269 0-7.149-2.452-7.149-7.966 0-3.881.408-10.009 3.88-25.941h-10.825v64.341c0 9.6 5.923 15.932 10.417 17.566 1.838.612 2.043 2.859-.204 2.859z" fill="#f5f5f5"/><path d="m257.884 340.17c-2.247 0-2.043-2.247-.204-2.859 4.493-1.634 10.417-7.966 10.417-17.566v-55.149c0-9.6-5.924-15.932-10.417-17.566-1.839-.613-2.043-2.86.204-2.86h24.919c1.021 0 1.634.613 1.634 1.634v21.038l12.051-13.276c3.472-3.881 0-5.924-2.247-6.741-1.838-.612-1.429-2.655.205-2.655h41.055c1.634 0 1.838 1.226.613 3.064-13.073 19.2-14.911 30.843-14.911 45.549s4.902 27.37 10.417 34.928c3.472 4.902 7.149 7.557 10.009 9.395 2.859 1.839 2.246 3.064.408 3.064h-20.63c-1.225 0-2.042-.408-2.859-1.43-9.804-12.459-13.073-30.434-13.073-45.753 0-8.987.613-20.834 8.988-35.132h-11.847l-18.179 20.017v41.873c0 9.6 5.924 15.932 10.417 17.566 1.838.612 2.043 2.859-.204 2.859z" fill="#f5f5f5"/><path d="m250.528 244.17c2.246 0 2.042 2.247.204 2.86-4.494 1.634-10.417 7.966-10.417 17.566v55.149c0 9.6 5.923 15.932 10.417 17.566 1.838.612 2.042 2.859-.204 2.859h-24.92c-1.021 0-1.634-.613-1.634-1.634v-23.898l-20.221 16.136c-4.494 3.677 0 5.924 2.247 6.741 1.838.613 1.43 2.655-.204 2.655h-32.885c-2.247 0-2.043-2.247-.205-2.859 4.494-1.634 10.417-7.966 10.417-17.566v-55.149c0-9.6-5.923-15.932-10.417-17.566-1.838-.613-2.042-2.86.205-2.86h24.919c1.021 0 1.634.613 1.634 1.634v78.843l24.51-19.813v-40.238c0-9.6-5.923-15.932-10.417-17.566-1.838-.613-2.042-2.86.205-2.86z" fill="#f5f5f5"/><path d="m133.449 340.783c-17.361-10.213-28.595-27.779-28.595-45.958 0-35.948 24.306-42.28 27.778-51.268 1.022-2.655 1.839-2.042 5.311 0 17.362 10.417 29.208 27.983 29.208 45.958 0 35.949-25.123 42.893-28.391 51.268-1.021 2.655-1.838 2.042-5.311 0zm-12.868-51.064c0 14.298 7.762 31.047 18.996 37.787 7.762-8.578 11.847-17.77 11.847-32.885 0-14.298-7.762-31.047-18.996-37.787-7.762 8.374-11.847 17.77-11.847 32.885z" fill="#f5f5f5"/><path d="m59.2121 342.213c-26.5532 0-43.0978-25.328-43.0978-59.03 0-46.57 25.9404-71.898 25.9404-79.047 0-2.042-.6128-2.859-2.4511-4.085s-1.0213-2.86.817-2.86h59.2341c1.4293 0 2.4513 1.022 1.2253 2.656-8.5785 11.03-24.9189 28.391-23.4891 51.676 1.0212-.612 2.2468-1.021 3.4723-1.021 4.0851 0 7.1489 3.472 7.1489 7.353 0 4.29-3.4723 7.558-7.9659 7.558-5.5149 0-10.6213-4.085-11.2341-14.298-.4085-6.128 1.2256-22.264 10.2128-38.809h-27.7787c-11.4383 18.792-16.749 39.626-16.749 63.524 0 38.4 16.3405 48.817 29.0043 48.817 15.9319 0 25.5319-18.996 25.5319-37.992 0-1.43.6128-1.838 1.8383-2.042 1.8383-.205 3.6766-.205 5.5149 0 1.8383.204 1.8383.612 1.8383 2.042 0 21.651-7.5575 55.558-39.0128 55.558z" fill="#f5f5f5"/><path d="m775.993 387.158c-2.247 0-2.043-2.247-.204-2.859 4.493-1.635 10.417-7.966 10.417-17.566v-102.128c0-9.6-5.924-15.932-10.417-17.566-1.839-.613-2.043-2.86.204-2.86h24.919c1.021 0 1.634.613 1.634 1.634v120.92c0 9.6 5.924 15.931 10.417 17.566 1.838.612 2.043 2.859-.204 2.859z" fill="#f5f5f5"/><path d="m732.309 387.158c-2.246 0-2.042-2.247-.204-2.859 4.494-1.635 10.417-7.966 10.417-17.566v-102.128c0-9.6-5.923-15.932-10.417-17.566-1.838-.613-2.042-2.86.204-2.86h24.92c1.021 0 1.634.613 1.634 1.634v120.92c0 9.6 5.923 15.931 10.417 17.566 1.838.612 2.042 2.859-.205 2.859z" fill="#f5f5f5"/><path d="m699.892 388.792c-18.792 0-31.047-18.383-31.047-38.4 0-30.23 17.77-47.387 17.77-52.902 0-1.634-.817-2.451-2.042-3.472-1.839-1.43-.613-2.86.817-2.86h42.689c2.043 0 2.655 1.838.817 3.064-1.225 1.021-3.881 1.43-3.881 8.374 0 16.954-11.03 44.732-40.647 48.613 2.247 17.158 12.256 22.264 18.179 22.264 11.234 0 17.362-11.03 18.587-21.651 0-.817.409-1.43 1.43-1.43h3.473c1.021 0 1.429.409 1.429 1.43-.204 16.749-5.515 36.97-27.574 36.97zm-15.932-45.345c19.404-6.944 27.166-23.897 27.574-38.808h-18.178c-6.128 12.868-9.192 25.94-9.396 38.808z" fill="#f5f5f5"/><path d="m593.081 425.967c-2.247 0-2.043-2.247-.205-2.86 4.494-1.634 10.418-7.966 10.418-17.566v-93.957c0-9.6-5.924-15.932-10.418-17.566-1.838-.613-2.042-2.86.205-2.86h25.123c.817 0 1.43.613 1.43 1.43v7.762c3.881-7.149 10.213-10.826 16.953-10.826 15.728 0 26.349 13.481 26.349 33.498 0 32.272-23.285 50.247-23.285 57.396 0 2.042 1.021 3.268 2.451 3.881 2.247 1.021 1.021 2.859-.409 2.859h-22.059v18.383c0 9.6 6.536 15.932 11.438 17.566 2.043.613 2.247 2.86-.204 2.86zm26.553-52.29h13.277c7.761-13.072 14.502-29.617 14.502-48.613 0-17.361-8.579-22.672-14.911-22.672-6.128 0-12.868 4.085-12.868 16.953z" fill="#f5f5f5"/><path d="m528.035 387.158c-1.226 0-1.634-.817-1.021-1.838 6.536-8.375 12.459-16.953 15.727-26.349-.817.613-1.838.817-2.655.817-2.451 0-4.902-2.043-4.902-4.902 0-2.86 2.042-5.107 5.311-5.107 3.472 0 6.74 2.451 6.74 7.558 0 4.085-2.043 10.213-4.085 16.34h24.102c4.902-3.064 6.945-8.374 6.945-11.438 0-19.2-43.915-15.728-43.915-40.647 0-13.685 13.685-21.855 13.685-25.94 0-1.022-.409-1.634-1.43-2.247s-.817-2.247 1.021-2.247h40.034c1.022 0 2.043.613.409 2.655-4.289 5.72-10.621 13.481-10.826 22.469.613-.409 1.43-.613 2.247-.613 2.655 0 4.698 2.247 4.698 4.902 0 2.859-2.655 4.902-5.106 4.902-4.085 0-6.741-3.677-6.741-7.966 0-5.515 1.022-9.396 2.043-12.868h-22.264c-3.268 2.86-5.515 6.945-5.515 11.438 0 17.77 46.162 12.256 45.549 39.83-.204 10.213-7.149 16.953-15.115 23.898-2.042 1.838-1.838 3.881-.613 5.719.817 1.226.205 1.634-.612 1.634z" fill="#f5f5f5"/><path d="m511.668 177.851c2.167 0 3.924 1.756 3.924 3.923s-1.757 3.924-3.924 3.924c-2.166 0-3.922-1.758-3.922-3.924s1.756-3.923 3.922-3.923zm167.385 0c2.167 0 3.923 1.756 3.923 3.923s-1.756 3.924-3.923 3.924c-2.166 0-3.923-1.757-3.923-3.924.001-2.167 1.757-3.923 3.923-3.923zm-146.462-9.154c1.445 0 2.617 1.172 2.617 2.616-.001 1.444-1.172 2.615-2.617 2.615-1.444 0-2.615-1.171-2.615-2.615s1.171-2.616 2.615-2.616zm125.539 0c1.445 0 2.616 1.172 2.616 2.616-.001 1.444-1.171 2.615-2.616 2.615-1.444 0-2.615-1.171-2.615-2.615s1.171-2.616 2.615-2.616zm-125.539-44.461c1.445 0 2.617 1.171 2.617 2.615 0 1.445-1.172 2.615-2.617 2.615-1.444 0-2.615-1.171-2.615-2.615s1.171-2.615 2.615-2.615zm125.539 0c1.445 0 2.616 1.171 2.616 2.615 0 1.445-1.171 2.615-2.616 2.615-1.444 0-2.615-1.17-2.615-2.615 0-1.444 1.171-2.615 2.615-2.615zm-146.462-18.308c2.889 0 5.232 2.342 5.232 5.231s-2.343 5.23-5.232 5.23c-2.888 0-5.23-2.342-5.23-5.23 0-2.889 2.342-5.231 5.23-5.231zm167.385 0c2.889 0 5.231 2.342 5.231 5.231s-2.342 5.23-5.231 5.23-5.23-2.341-5.23-5.23 2.341-5.231 5.23-5.231zm-109.845-23.5388c1.444.0001 2.615 1.1718 2.615 2.6162 0 1.4441-1.171 2.615-2.615 2.6152-1.445 0-2.615-1.171-2.616-2.6152 0-1.4445 1.171-2.6162 2.616-2.6162zm52.307 0c1.445 0 2.615 1.1718 2.615 2.6162 0 1.4442-1.171 2.6151-2.615 2.6152-1.444 0-2.615-1.171-2.615-2.6152 0-1.4445 1.171-2.6162 2.615-2.6162zm-62.769-23.5381c2.888 0 5.23 2.3417 5.23 5.2304 0 2.8889-2.342 5.2315-5.23 5.2315-2.889-.0001-5.231-2.3426-5.231-5.2315 0-2.8887 2.342-5.2304 5.231-5.2304zm73.23 0c2.889 0 5.231 2.3417 5.232 5.2304 0 2.8889-2.343 5.2315-5.232 5.2315-2.889-.0002-5.23-2.3427-5.23-5.2315 0-2.8886 2.341-5.2302 5.23-5.2304z" fill="#f5f5f5"/><path d="m527.361 189.621c.826 0 1.495.669 1.495 1.494.098 4.081 3.391 7.372 7.472 7.469.825.001 1.494.673 1.494 1.499 0 .825-.669 1.494-1.494 1.494-4.082.097-7.373 3.39-7.471 7.471 0 .826-.67 1.495-1.496 1.495-.825 0-1.494-.669-1.494-1.495-.098-4.081-3.392-7.372-7.473-7.469-.826 0-1.495-.671-1.496-1.496 0-.826.67-1.496 1.496-1.496 4.081-.097 7.372-3.391 7.47-7.472 0-.825.672-1.494 1.497-1.494zm136.001 0c.826 0 1.494.669 1.494 1.494.098 4.081 3.391 7.372 7.472 7.469.826 0 1.495.673 1.495 1.499 0 .825-.669 1.494-1.494 1.494-4.082.097-7.373 3.39-7.471 7.471 0 .826-.67 1.495-1.496 1.495-.825 0-1.494-.669-1.494-1.495-.098-4.081-3.392-7.373-7.473-7.47-.826 0-1.495-.67-1.496-1.495 0-.826.669-1.495 1.495-1.496 4.081-.097 7.373-3.391 7.471-7.472 0-.825.672-1.494 1.497-1.494zm-151.693-57.539c1.238 0 2.241 1.004 2.241 2.242l.001 2.241c0 4.952 4.015 8.968 8.967 8.968h2.241c1.238 0 2.242 1.003 2.242 2.241s-1.004 2.242-2.242 2.242h-2.259c-4.944.01-8.949 4.02-8.949 8.967l-.001 2.241c0 1.238-1.003 2.242-2.241 2.242s-2.242-1.004-2.242-2.242v-2.272c-.017-4.933-4.016-8.926-8.949-8.936h-2.259c-1.238 0-2.242-1.004-2.242-2.242s1.004-2.241 2.242-2.241h2.241c4.942 0 8.95-3.999 8.967-8.937v-2.272c0-1.238 1.004-2.242 2.242-2.242zm167.385 0c1.238 0 2.241 1.004 2.241 2.242v2.241c0 4.952 4.015 8.968 8.968 8.968h2.241c1.238 0 2.242 1.003 2.242 2.241s-1.004 2.242-2.242 2.242h-2.259c-4.944.01-8.95 4.02-8.95 8.967v2.241c0 1.238-1.003 2.242-2.241 2.242s-2.242-1.004-2.242-2.242v-2.272c-.017-4.933-4.016-8.926-8.95-8.936h-2.259c-1.238 0-2.242-1.004-2.242-2.242s1.004-2.241 2.242-2.241h2.242c4.942 0 8.95-3.999 8.967-8.937v-2.272c0-1.238 1.004-2.242 2.242-2.242zm-146.462-68.0005c1.651 0 2.989 1.3385 2.989 2.9893v2.9893c0 6.6029 5.353 11.956 11.956 11.956h2.989c1.651.0002 2.988 1.3378 2.989 2.9883 0 1.6507-1.338 2.989-2.989 2.9893h-3.012c-6.593.0126-11.933 5.3607-11.933 11.956v2.9893c0 1.651-1.338 2.989-2.989 2.989s-2.989-1.338-2.989-2.989v-3.0303c-.023-6.5764-5.354-11.9024-11.933-11.915h-3.012c-1.651 0-2.989-1.3385-2.989-2.9893 0-1.6506 1.339-2.9883 2.989-2.9883h2.988c6.59 0 11.934-5.3309 11.957-11.915v-3.0303c0-1.6507 1.338-2.9892 2.989-2.9893zm125.539 0c1.65.0003 2.988 1.3387 2.988 2.9893v2.9893c0 6.6028 5.353 11.9558 11.956 11.956h2.989c1.651 0 2.989 1.3377 2.99 2.9883 0 1.6508-1.339 2.9893-2.99 2.9893h-3.012c-6.592.0128-11.933 5.3608-11.933 11.956v2.9893c0 1.651-1.338 2.989-2.988 2.989-1.651 0-2.989-1.338-2.989-2.989v-3.0303c-.023-6.5764-5.354-11.9023-11.933-11.915h-3.013c-1.65-.0001-2.989-1.3385-2.989-2.9893 0-1.6506 1.339-2.9883 2.989-2.9883h2.99c6.589-.0001 11.933-5.3309 11.956-11.915v-3.0303c0-1.6508 1.338-2.9893 2.989-2.9893zm-62.77-20.9228c1.651.0001 2.99 1.3385 2.99 2.9892v2.9883c0 6.6032 5.353 11.9561 11.956 11.9561h2.988c1.651 0 2.989 1.3386 2.989 2.9892 0 1.6508-1.338 2.9893-2.989 2.9893h-3.012c-6.592.0126-11.932 5.3607-11.932 11.9561v2.9892c-.001 1.6506-1.339 2.9882-2.99 2.9883-1.65 0-2.989-1.3376-2.989-2.9883v-3.0303c-.022-6.5765-5.354-11.9024-11.933-11.915h-3.012c-1.651-.0002-2.989-1.3386-2.989-2.9893.001-1.6505 1.338-2.989 2.989-2.9892h2.989c6.59 0 11.934-5.3307 11.956-11.9151v-3.0293c0-1.6507 1.339-2.9892 2.989-2.9892z" fill="#daa520"/><path d="m592.373 199.709c0 1.65 1.338 2.988 2.989 2.988 1.65 0 2.988-1.338 2.989-2.988v-3.153c.087-6.527 5.406-11.792 11.955-11.792h2.989c1.651 0 2.991-1.338 2.991-2.989s-1.339-2.989-2.989-2.989h-3.058c-6.518-.036-11.801-5.287-11.888-19.639v-18.845c0-1.65-1.338-2.99-2.989-2.99s-2.989 1.339-2.989 2.989l-.001 18.683c0 14.427-5.317 19.766-11.889 19.802h-3.056c-1.651 0-2.989 1.338-2.989 2.989 0 1.65 1.338 2.989 2.989 2.989h2.989c6.603 0 11.956 5.353 11.956 11.956z" fill="#f5f5f5"/><path d="m629.174 265.466c1.751 0 3.386.875 4.357 2.332l3.677 5.514h-83.693l3.676-5.514c.972-1.457 2.607-2.332 4.358-2.332zm-33.813-169.9997c28.889 0 52.308 23.4187 52.308 52.3077v118.073c0 2.476-3.117 3.569-4.663 1.636l-16.26-20.324-.281-.399c-.982-1.39-2.577-2.216-4.279-2.217h-53.649c-1.702 0-3.297.827-4.278 2.217l-.283.399-16.259 20.324c-1.547 1.933-4.664.839-4.664-1.636v-118.073c.001-28.889 23.419-52.3077 52.308-52.3077zm23.351 156.9227c1.751 0 3.387.875 4.358 2.332l3.676 5.515h-62.77l3.676-5.515c.971-1.457 2.607-2.332 4.358-2.332zm-23.351-136c-17.333 0-31.385 14.052-31.385 31.385v88.923h19.18c2.889-.001 5.23-2.343 5.23-5.232 0-2.888-2.342-5.23-5.23-5.23h-4.795c-2.166 0-3.923-1.756-3.923-3.923 0-2.166 1.757-3.923 3.923-3.923h34c2.166 0 3.924 1.757 3.924 3.923 0 2.167-1.757 3.923-3.924 3.923h-4.795c-2.888 0-5.231 2.342-5.231 5.23 0 2.889 2.342 5.232 5.231 5.232h19.18v-88.923c0-17.333-14.052-31.385-31.385-31.385z" fill="#daa520"/></svg>