    <svg
      class="max-h-40 max-w-full"
      viewBox="0 0 832 444"
      fill="none"
      xmlns="http://www.w3.org/2000/svg"
    >
      <title>Counterspell Games Logo</title>
      <path
        d="M460 136C460 60.8893 520.889 0 596 0V0C671.111 0 732 60.8893 732 136V332H460V136Z"
        fill="#36008E"
      />
      <path
        fill-rule="evenodd"
        clip-rule="evenodd"
        d="M464.534 340.17C463.833 340.17 463.37 339.951 463.122 339.632C462.574 338.927 463.065 337.732 464.33 337.311C464.397 337.286 464.465 337.26 464.534 337.233C464.551 337.227 464.568 337.22 464.586 337.213C467.697 335.973 471.414 332.544 473.376 327.384C473.759 326.378 474.075 325.305 474.307 324.17C474.589 322.786 474.747 321.309 474.747 319.745V264.596C474.747 263.032 474.589 261.554 474.307 260.17C474.075 259.035 473.759 257.963 473.376 256.956C473.034 256.056 472.638 255.209 472.202 254.417C470.122 250.642 467.115 248.117 464.534 247.107C464.465 247.08 464.397 247.054 464.33 247.03C462.491 246.417 462.287 244.17 464.534 244.17H489.453C490.474 244.17 491.087 244.783 491.087 245.804V265.208L501.913 253.77C502.187 253.496 502.431 253.227 502.647 252.964C502.66 252.948 502.673 252.931 502.686 252.915C502.947 252.592 503.165 252.276 503.342 251.968C504.211 250.457 504.106 249.122 503.342 247.882C503.077 247.452 502.732 247.032 502.321 246.621C502.03 246.33 501.832 246.056 501.715 245.804C501.258 244.818 502.041 244.17 503.342 244.17H528.874C530.1 244.17 530.508 245.191 529.691 246.213C529.415 246.507 529.143 246.804 528.874 247.104C525.836 250.494 523.274 254.236 521.218 257.962C520.811 258.699 520.424 259.437 520.057 260.17C519.97 260.345 519.883 260.519 519.798 260.693C519.088 262.147 518.457 263.584 517.908 264.982C517.676 265.573 517.458 266.157 517.255 266.733C516.46 268.987 515.889 271.108 515.552 272.996C515.311 274.345 515.189 275.574 515.189 276.647C515.189 276.785 515.19 276.922 515.191 277.055C515.196 277.592 515.212 278.088 515.239 278.551C515.322 280.009 515.509 281.138 515.802 282.162C517.027 281.345 518.253 280.936 519.274 280.936C519.513 280.936 519.747 280.947 519.976 280.969C523.284 281.285 525.606 283.83 525.606 287.268C525.606 289.615 524.524 291.546 522.785 292.636C521.8 293.253 520.604 293.6 519.274 293.6C515.311 293.6 512.611 291.072 511.024 287.268C510.651 286.374 510.339 285.409 510.087 284.389C510.041 284.205 509.998 284.019 509.956 283.832C509.657 282.487 509.457 281.055 509.353 279.573C509.295 278.748 509.266 277.906 509.266 277.055C509.266 276.921 509.267 276.784 509.268 276.647C509.279 275.773 509.325 274.838 509.408 273.855C509.439 273.488 509.476 273.115 509.518 272.735C509.674 271.317 509.905 269.816 510.22 268.269C510.315 267.802 510.418 267.332 510.528 266.858C510.798 265.699 511.114 264.521 511.48 263.338C511.521 263.206 511.562 263.075 511.604 262.943C511.729 262.553 511.858 262.163 511.993 261.774C512.179 261.238 512.375 260.703 512.582 260.17C512.883 259.393 513.207 258.62 513.555 257.855H507.836L491.087 275.625V319.745C491.087 321.309 491.244 322.786 491.527 324.17C491.759 325.305 492.075 326.378 492.458 327.384C494.431 332.573 498.178 336.011 501.3 337.233C501.368 337.26 501.436 337.286 501.504 337.311C503.342 337.923 503.547 340.17 501.3 340.17H464.534ZM507.949 322.661C510.39 323.715 512.841 325.415 514.807 327.718C514.466 325.779 514.283 323.738 514.283 321.592C514.283 317.091 515.107 313.029 516.354 309.434C513.145 309.064 510.294 308.094 507.801 306.725L507.087 307.201V319.745C507.087 321.152 507.496 322.013 507.818 322.484C507.866 322.553 507.91 322.612 507.949 322.661ZM522.392 343.598C521.129 342.125 519.963 340.528 518.933 338.805C518.934 338.86 518.934 338.915 518.934 338.97C518.934 343.816 516.859 348.752 512.694 352.173C508.773 355.394 504.393 356.17 501.3 356.17H464.534C461.44 356.17 457.061 355.394 453.14 352.173C452.718 351.827 452.318 351.465 451.94 351.09C445.675 355.29 437.87 357.804 428.526 357.804C415.943 357.804 405.887 353.007 398.355 345.677C397.32 348.11 395.697 350.355 393.484 352.173C389.562 355.394 385.183 356.17 382.09 356.17H345.324C344.816 356.17 344.274 356.149 343.704 356.1C343.078 356.153 342.516 356.17 342.038 356.17H321.408C318.947 356.17 315.857 355.743 312.67 354.149C310.611 353.119 308.987 351.84 307.725 350.594C307.209 351.149 306.649 351.677 306.045 352.173C302.124 355.394 297.744 356.17 294.651 356.17H257.885C256.793 356.17 255.542 356.074 254.207 355.807C252.872 356.074 251.62 356.17 250.529 356.17H225.609C222.661 356.17 219 355.429 215.645 353.158C212.757 355.099 209.311 356.17 205.797 356.17H185.918H183.465H172.911C169.818 356.17 165.439 355.394 161.517 352.173C159.163 350.239 157.476 347.821 156.455 345.208C156.285 345.351 156.12 345.49 155.96 345.624C155.589 345.936 155.245 346.225 154.933 346.49C153.973 347.306 153.37 347.841 152.98 348.21C152.318 349.606 151.219 351.524 149.495 353.308C145.785 357.148 140.638 358.986 135.433 358.465C131.84 358.106 129.079 356.663 128.245 356.227L128.198 356.202C127.295 355.731 126.27 355.125 125.62 354.74C125.516 354.679 125.421 354.623 125.338 354.574C116.355 349.29 108.475 342.27 102.359 334.065C94.0508 347.427 80.1124 358.213 59.2131 358.213C40.1715 358.213 24.7512 348.871 14.6423 334.573C4.81443 320.673 0.115234 302.439 0.115234 283.183C0.115234 256.768 7.50924 236.338 14.7578 221.755C17.8811 215.471 21.0325 210.181 23.3192 206.342C23.5336 205.982 23.7405 205.635 23.939 205.301C22.3991 201.866 21.8168 197.591 23.5977 192.694C26.9159 183.569 35.5196 181.191 40.4216 181.191H99.6557C103.304 181.191 110.577 182.461 114.917 189.563C120.056 197.972 116.252 206.019 113.681 209.447L113.597 209.559L113.511 209.67C112.485 210.989 111.452 212.296 110.424 213.595C103.829 221.937 97.4686 229.982 94.7203 239.124C98.7479 242.198 101.649 246.536 103.056 251.3C103.881 250.274 104.722 249.291 105.574 248.349C109.04 244.517 112.705 241.358 115.153 239.249C115.572 238.887 115.956 238.557 116.297 238.259C117.342 237.345 117.952 236.754 118.273 236.434C118.916 235.021 120.046 232.95 121.9 231.032C125.609 227.193 130.756 225.355 135.962 225.875C139.555 226.234 142.315 227.677 143.149 228.113L143.197 228.138C144.1 228.61 145.124 229.215 145.775 229.6C145.879 229.662 145.973 229.718 146.056 229.766L146.116 229.802L146.176 229.837C150.005 232.135 153.674 234.757 157.111 237.662C158.143 235.616 159.611 233.733 161.517 232.167C165.439 228.946 169.818 228.17 172.911 228.17H197.831C200.187 228.17 202.999 228.643 205.746 229.993C208.651 228.571 211.539 228.17 213.763 228.17H250.529C251.62 228.17 252.872 228.267 254.207 228.533C255.542 228.267 256.793 228.17 257.885 228.17H282.804C284.578 228.17 286.611 228.438 288.679 229.147C290.522 228.508 292.474 228.17 294.447 228.17H335.502C335.98 228.17 336.527 228.188 337.128 228.24C336.204 226.884 335.368 225.269 334.791 223.373C333.691 219.757 333.618 215.185 335.817 210.738C337.849 206.629 341.01 204.275 343.273 203.018L343.345 202.977L365.273 191.091C369.429 188.847 379.444 186.123 386.88 194.621C392.367 200.892 391.506 208.243 389.993 212.42C388.309 217.137 387.877 218.696 387.877 223.132V228.17H391.69C394.339 228.17 398.845 228.811 402.805 232.049C406.37 229.235 410.655 228.17 414.024 228.17H456.713C457.855 228.17 459.168 228.298 460.552 228.596C462.001 228.282 463.36 228.17 464.534 228.17H489.453C491.507 228.17 493.906 228.53 496.307 229.515C499.305 228.336 502.054 228.17 503.342 228.17H528.874C533.814 228.17 541.592 230.584 544.904 238.866C547.946 246.47 544.728 253.03 542.185 256.208L541.79 256.702L541.357 257.164C538.055 260.68 535.362 264.992 533.527 269.102C533.432 269.315 533.34 269.525 533.251 269.733C535.384 271.424 537.19 273.503 538.571 275.871C540.308 275.379 542.02 275.158 543.559 275.158H583.593C584.803 275.158 586.45 275.276 588.303 275.776C590.05 275.314 591.695 275.158 593.082 275.158H618.205C620.133 275.158 621.985 275.468 623.716 276.041C627.718 274.402 632.056 273.524 636.588 273.524C649.387 273.524 660.504 279.161 668.085 288.684C668.362 287.484 668.771 286.307 669.311 285.173C672.884 277.669 680.217 275.158 685.391 275.158H726.523V264.605C726.523 263.198 726.114 262.336 725.792 261.866C725.745 261.796 725.7 261.737 725.661 261.688C720.194 259.328 714.677 253.723 714.676 245.38C714.676 240.533 716.751 235.598 720.916 232.176C724.838 228.955 729.217 228.179 732.31 228.179H757.23C759.993 228.179 763.382 228.83 766.559 230.781C769.923 228.722 773.408 228.179 775.994 228.179H800.913C804.632 228.179 809.485 229.358 813.427 233.3C817.369 237.242 818.547 242.095 818.547 245.813V366.733C818.547 368.14 818.956 369.001 819.278 369.472C819.326 369.541 819.37 369.6 819.41 369.65C824.876 372.009 830.394 377.614 830.394 385.958C830.394 390.805 828.319 395.74 824.154 399.161C820.233 402.382 815.853 403.158 812.76 403.158H775.994C774.962 403.158 773.788 403.072 772.535 402.837C771.282 403.072 770.108 403.158 769.076 403.158H732.31C729.292 403.158 725.049 402.419 721.202 399.391C715.321 402.797 708.218 404.792 699.893 404.792C680.114 404.792 666.58 392.94 659.275 378.028C658.895 378.572 658.532 379.088 658.192 379.573C659.702 383.478 659.677 387.666 658.389 391.368C655.716 399.052 648.489 403.158 641.694 403.158H635.635V405.541C635.635 406.1 635.726 406.51 635.834 406.819C635.948 407.144 636.11 407.438 636.303 407.694C636.451 407.891 636.596 408.037 636.701 408.129C641.853 410.053 648.656 415.347 648.656 424.766C648.656 430.201 646.081 435.212 641.822 438.406C637.924 441.33 633.729 441.967 630.869 441.967H593.082C589.988 441.967 585.609 441.191 581.688 437.97C577.523 434.548 575.448 429.613 575.448 424.767C575.448 416.423 580.965 410.818 586.432 408.458C586.471 408.409 586.516 408.35 586.563 408.28C586.885 407.81 587.294 406.948 587.294 405.541V393.318C587.033 393.885 586.731 394.457 586.385 395.033C583.862 399.238 580.194 401.239 577.721 402.129C575.29 403.004 573.131 403.158 571.747 403.158H528.036C524.43 403.158 516.863 401.85 512.748 394.207C508.774 386.826 511.553 379.991 513.295 377.088L513.799 376.248L514.402 375.475C517.262 371.811 519.755 368.402 521.848 365.14C520.174 362.198 519.185 358.739 519.185 354.886C519.185 351.022 520.217 347.071 522.392 343.598ZM535.437 356.43C535.546 356.75 535.687 357.054 535.856 357.337C536.751 358.842 538.419 359.788 540.087 359.788C540.219 359.788 540.355 359.783 540.496 359.771C541.227 359.712 542.057 359.485 542.742 358.971C542.093 360.838 541.339 362.673 540.496 364.48C540.362 364.767 540.225 365.054 540.087 365.339C540.02 365.479 539.952 365.618 539.883 365.757C538.984 367.583 537.996 369.382 536.937 371.158C536.863 371.283 536.788 371.407 536.713 371.531C536.349 372.136 535.977 372.738 535.597 373.337C535.245 373.894 534.886 374.448 534.521 375.001C532.509 378.049 530.317 381.04 528.036 384.003C527.697 384.442 527.357 384.881 527.015 385.32C526.402 386.341 526.81 387.158 528.036 387.158H571.747C572.564 387.158 573.176 386.75 572.359 385.524C572.109 385.148 571.901 384.764 571.747 384.375C571.359 383.401 571.305 382.396 571.747 381.413C571.792 381.312 571.843 381.211 571.899 381.111C572.146 380.668 572.499 380.231 572.972 379.805C579.169 374.403 584.747 369.124 587.016 362.239C587.115 361.938 587.208 361.633 587.294 361.326C587.772 359.626 588.049 357.828 588.087 355.907C588.132 353.9 587.928 352.068 587.513 350.39C587.446 350.118 587.373 349.849 587.294 349.585C586.188 345.854 584 342.91 581.162 340.492C579.342 338.943 577.255 337.609 575.015 336.423C574.416 336.106 573.807 335.8 573.189 335.503C571.685 334.779 570.128 334.111 568.55 333.477C567.521 333.065 566.483 332.667 565.445 332.279C564.201 331.814 562.956 331.364 561.725 330.918L561.72 330.916C560.069 330.319 558.444 329.73 556.88 329.13C556.656 329.043 556.432 328.957 556.21 328.87C555.707 328.673 555.212 328.474 554.724 328.273C550.27 326.438 546.511 324.401 544.391 321.592C543.21 320.027 542.538 318.222 542.538 316.077C542.538 312.776 543.751 309.695 545.691 307.158C545.748 307.083 545.807 307.007 545.866 306.933C546.523 306.103 547.258 305.335 548.053 304.639H570.317C570.078 305.451 569.839 306.286 569.613 307.158C569.382 308.053 569.164 308.987 568.974 309.978C568.883 310.455 568.798 310.944 568.721 311.449C568.502 312.886 568.348 314.446 568.295 316.171C568.294 316.205 568.293 316.239 568.292 316.274C568.28 316.676 568.274 317.087 568.274 317.507C568.274 318.245 568.353 318.964 568.504 319.65C568.573 319.964 568.657 320.272 568.756 320.571C568.764 320.594 568.771 320.616 568.779 320.639C569.336 322.275 570.332 323.648 571.67 324.508C572.624 325.121 573.751 325.473 575.015 325.473C575.15 325.473 575.287 325.467 575.423 325.454C576.492 325.358 577.57 324.89 578.423 324.151C579.312 323.38 579.957 322.315 580.094 321.068C580.112 320.905 580.121 320.739 580.121 320.571C580.121 319.424 579.74 318.353 579.093 317.507C578.756 317.066 578.348 316.687 577.883 316.388C577.174 315.933 576.335 315.669 575.423 315.669C575.287 315.669 575.15 315.674 575.015 315.686C574.918 315.694 574.822 315.705 574.727 315.719C574.155 315.802 573.614 315.99 573.176 316.282C573.177 316.235 573.179 316.189 573.18 316.143C573.249 313.838 573.719 311.615 574.451 309.487C574.723 308.697 575.031 307.921 575.368 307.158C575.386 307.117 575.405 307.075 575.423 307.034C575.541 306.77 575.662 306.508 575.787 306.248C575.965 305.875 576.15 305.505 576.34 305.139C576.93 304.006 577.574 302.906 578.246 301.842C578.633 301.231 579.028 300.631 579.429 300.044C580.667 298.228 581.949 296.533 583.128 294.973C583.285 294.765 583.44 294.56 583.593 294.356C583.731 294.173 583.868 293.992 584.002 293.813C585.636 291.771 584.615 291.158 583.593 291.158H543.559C541.721 291.158 541.517 292.792 542.538 293.405C542.995 293.679 543.329 293.953 543.559 294.264C543.843 294.648 543.968 295.087 543.968 295.652C543.968 296.074 543.822 296.54 543.559 297.051C543.335 297.489 543.025 297.959 542.65 298.464C541.965 299.385 541.06 300.42 540.05 301.575C536.896 305.18 532.722 309.954 531.036 316.077C530.56 317.806 530.283 319.643 530.283 321.592C530.283 326.997 532.349 331.066 535.584 334.321C537.018 335.763 538.681 337.045 540.496 338.212C541.08 338.588 541.681 338.953 542.295 339.307C546.032 341.462 550.257 343.232 554.381 344.96C555.091 345.258 555.799 345.554 556.5 345.851C556.738 345.952 556.976 346.053 557.212 346.154C557.938 346.464 558.656 346.775 559.363 347.089C560.102 347.417 560.828 347.748 561.538 348.085C562.098 348.351 562.649 348.62 563.187 348.894C566.943 350.806 570.125 352.943 572.088 355.681C573.426 357.548 574.198 359.694 574.198 362.239C574.198 364.571 573.014 368.204 570.288 371.158C570.261 371.187 570.234 371.216 570.207 371.244C569.429 372.074 568.528 372.849 567.495 373.523C567.458 373.547 567.421 373.571 567.383 373.595C567.34 373.623 567.297 373.65 567.253 373.677L543.151 373.676C543.156 373.662 543.16 373.648 543.165 373.635C543.441 372.807 543.717 371.98 543.987 371.158C544.8 368.689 545.566 366.266 546.15 364.025C546.184 363.898 546.216 363.771 546.248 363.645C546.534 362.519 546.771 361.442 546.941 360.431C547.008 360.031 547.065 359.641 547.11 359.262C547.177 358.708 547.218 358.178 547.231 357.677C547.234 357.562 547.236 357.449 547.236 357.337C547.236 356.438 547.135 355.621 546.949 354.886C546.079 351.443 543.357 349.779 540.496 349.779C540.357 349.779 540.221 349.783 540.087 349.791C538.752 349.87 537.641 350.338 536.817 351.07C536.043 351.757 535.521 352.677 535.302 353.73C535.225 354.1 535.185 354.487 535.185 354.886C535.185 355.433 535.275 355.951 535.437 356.43ZM602.855 307.158C603.137 308.542 603.294 310.02 603.294 311.584V405.541C603.294 407.105 603.137 408.582 602.855 409.967C602.623 411.102 602.307 412.174 601.924 413.181C599.951 418.369 596.204 421.808 593.082 423.03C593.013 423.057 592.945 423.082 592.877 423.107C591.039 423.72 590.835 425.967 593.082 425.967H630.869C633.32 425.967 633.116 423.72 631.073 423.107C631.005 423.084 630.937 423.061 630.869 423.037C627.597 421.87 623.66 418.656 621.422 413.81C620.875 412.624 620.429 411.341 620.12 409.967C619.808 408.582 619.635 407.105 619.635 405.541V387.158H641.694C643.124 387.158 644.35 385.32 642.103 384.299C641.963 384.238 641.826 384.172 641.694 384.1C640.483 383.437 639.652 382.26 639.652 380.418C639.652 379.727 639.869 378.936 640.261 378.041C640.61 377.245 641.098 376.366 641.694 375.402C642.65 373.86 643.886 372.1 645.28 370.114C647.688 366.684 650.57 362.58 653.3 357.754C654.596 355.464 655.857 353.012 657.018 350.392C660.189 343.233 662.607 334.824 662.906 325.064C662.927 324.39 662.937 323.709 662.937 323.022C662.937 318.813 662.467 314.893 661.579 311.326C658.244 297.931 649.008 289.524 636.588 289.524C636.182 289.524 635.778 289.537 635.376 289.564C634.405 289.628 633.445 289.77 632.503 289.988C630.4 290.475 628.384 291.344 626.525 292.588C623.828 294.393 621.46 296.987 619.635 300.35V292.588C619.635 291.771 619.022 291.158 618.205 291.158H593.082C590.835 291.158 591.039 293.405 592.877 294.018C592.945 294.042 593.013 294.068 593.082 294.095C595.121 294.893 597.426 296.637 599.33 299.196C600.342 300.555 601.24 302.144 601.924 303.944C602.307 304.951 602.623 306.023 602.855 307.158ZM619.635 373.677H632.911C633.402 372.851 633.888 372.012 634.369 371.158C634.796 370.401 635.218 369.633 635.635 368.854C642.185 356.624 647.414 341.795 647.414 325.064C647.414 324.364 647.4 323.683 647.372 323.022C646.864 310.646 641.718 304.977 636.588 303.12C635.194 302.615 633.801 302.392 632.503 302.392C630.423 302.392 628.272 302.863 626.338 303.988C625.598 304.419 624.889 304.946 624.229 305.579C621.532 308.163 619.635 312.518 619.635 319.345V373.677ZM654.883 384.537C654.891 384.52 654.901 384.501 654.912 384.481C654.821 384.692 654.789 384.72 654.883 384.537ZM671.119 365.037C674.838 376.55 682.923 385.686 693.906 388.14C695.816 388.567 697.815 388.792 699.893 388.792C700.806 388.792 701.691 388.757 702.548 388.69C707.48 388.3 711.487 386.818 714.729 384.563C719.651 381.14 722.805 375.936 724.745 370.075C725.143 368.872 725.49 367.641 725.79 366.392C725.823 366.257 725.856 366.119 725.887 365.983C725.939 365.76 725.989 365.537 726.038 365.314C726.219 364.483 726.38 363.645 726.523 362.804C727.105 359.387 727.385 355.907 727.455 352.551C727.46 352.307 727.464 352.064 727.467 351.822C727.467 350.981 727.191 350.556 726.523 350.432C726.38 350.405 726.218 350.392 726.038 350.392H722.565C721.576 350.392 721.162 350.967 721.137 351.745C721.136 351.77 721.135 351.796 721.135 351.822C720.667 355.882 719.482 360.002 717.569 363.543C714.479 369.264 709.488 373.473 702.548 373.473C701.731 373.473 700.835 373.376 699.893 373.163C699.346 373.039 698.784 372.877 698.211 372.672C695.495 371.699 692.562 369.768 690.064 366.498C688.649 364.647 687.373 362.365 686.355 359.584C686.044 358.734 685.756 357.836 685.497 356.89C685.023 355.165 684.641 353.278 684.37 351.217L684.369 351.209C684.532 351.188 684.693 351.166 684.855 351.143C685.449 351.06 686.036 350.966 686.615 350.863C712.096 346.343 723.045 323.646 724.77 307.158C724.786 307.005 724.801 306.852 724.816 306.7C724.87 306.127 724.913 305.562 724.945 305.006C724.993 304.182 725.016 303.378 725.016 302.596C725.016 299.087 725.694 297.247 726.523 296.153C726.935 295.609 727.385 295.25 727.807 294.962C727.899 294.899 727.991 294.839 728.08 294.781C728.132 294.748 728.183 294.715 728.233 294.683C728.479 294.527 728.706 294.381 728.897 294.222C730.735 292.996 730.123 291.158 728.08 291.158H685.391C683.961 291.158 682.735 292.588 684.574 294.018C684.872 294.266 685.147 294.503 685.391 294.742C686.149 295.486 686.616 296.254 686.616 297.49C686.616 298.342 686.192 299.472 685.475 300.886C685.447 300.94 685.419 300.994 685.391 301.05C684.727 302.338 683.83 303.855 682.796 305.605L682.794 305.609C681.454 307.876 679.884 310.533 678.289 313.588C676.825 316.394 675.34 319.537 673.995 323.022C672.393 327.174 670.988 331.813 670.053 336.948C669.686 338.96 669.392 341.048 669.185 343.213C668.966 345.519 668.846 347.911 668.846 350.392C668.846 351.343 668.874 352.29 668.928 353.231C669.069 355.654 669.389 358.042 669.877 360.361C669.891 360.427 669.905 360.492 669.919 360.557C670.247 362.083 670.648 363.579 671.119 365.037ZM701.098 332.057C704.174 328.578 706.504 324.69 708.175 320.639C709.991 316.234 711.028 311.636 711.397 307.158C711.467 306.313 711.513 305.473 711.535 304.639H693.357C693.35 304.653 693.343 304.667 693.336 304.682C692.944 305.506 692.564 306.332 692.197 307.158C689.715 312.744 687.805 318.364 686.452 323.984C685.568 327.652 684.922 331.32 684.507 334.979C684.187 337.809 684.006 340.633 683.961 343.447C684.418 343.284 684.868 343.115 685.312 342.94C691.936 340.338 697.136 336.536 701.098 332.057ZM719.706 281.144L719.672 281.166C719.726 281.13 719.741 281.122 719.706 281.144ZM742.523 366.733C742.523 368.297 742.366 369.774 742.083 371.158C741.852 372.293 741.536 373.366 741.153 374.372C740.404 376.341 739.4 378.058 738.271 379.497C736.426 381.851 734.248 383.463 732.31 384.221C732.242 384.248 732.174 384.274 732.106 384.299C730.268 384.911 730.064 387.158 732.31 387.158H769.076C771.323 387.158 771.119 384.911 769.281 384.299C769.213 384.274 769.145 384.248 769.076 384.221C766.394 383.171 763.251 380.486 761.167 376.46C760.825 375.8 760.512 375.103 760.234 374.372C759.851 373.366 759.535 372.293 759.303 371.158C759.021 369.774 758.864 368.297 758.864 366.733V245.813C758.864 245.273 758.692 244.847 758.379 244.566C758.101 244.315 757.711 244.179 757.23 244.179H732.31C730.064 244.179 730.268 246.426 732.106 247.039C732.174 247.064 732.242 247.089 732.31 247.116C735.432 248.338 739.18 251.777 741.153 256.965C741.536 257.972 741.852 259.044 742.083 260.179C742.366 261.564 742.523 263.041 742.523 264.605V366.733ZM775.79 247.039C775.857 247.064 775.926 247.089 775.994 247.116C779.116 248.338 782.863 251.777 784.836 256.965C785.219 257.972 785.535 259.044 785.767 260.179C786.049 261.564 786.207 263.041 786.207 264.605V366.733C786.207 368.297 786.049 369.774 785.767 371.158C785.535 372.293 785.219 373.366 784.836 374.372C784.558 375.103 784.245 375.8 783.903 376.46C781.819 380.486 778.676 383.171 775.994 384.221C775.926 384.248 775.857 384.274 775.79 384.299C773.951 384.911 773.747 387.158 775.994 387.158H812.76C815.007 387.158 814.802 384.911 812.964 384.299C812.896 384.274 812.828 384.248 812.76 384.221C809.638 382.999 805.891 379.561 803.918 374.372C803.535 373.366 803.219 372.293 802.987 371.158C802.704 369.774 802.547 368.297 802.547 366.733V245.813C802.547 244.792 801.934 244.179 800.913 244.179H775.994C775.472 244.179 775.083 244.301 774.815 244.494C774.378 244.811 774.266 245.321 774.435 245.813C774.516 246.048 774.66 246.278 774.864 246.481C775.097 246.714 775.408 246.912 775.79 247.039ZM448.339 234.156L448.305 234.178C448.359 234.142 448.374 234.134 448.339 234.156ZM283.348 244.237C283.183 244.193 283.001 244.17 282.804 244.17H257.885C255.638 244.17 255.842 246.417 257.681 247.03C257.748 247.054 257.816 247.08 257.885 247.107C260.483 248.124 263.514 250.676 265.595 254.494C266.015 255.264 266.396 256.085 266.727 256.956C267.11 257.963 267.426 259.035 267.658 260.17C267.94 261.554 268.098 263.032 268.098 264.596V319.745C268.098 321.309 267.94 322.786 267.658 324.17C267.426 325.305 267.11 326.378 266.727 327.384C266.396 328.255 266.015 329.077 265.595 329.847C263.514 333.664 260.483 336.216 257.885 337.233C257.816 337.26 257.748 337.286 257.681 337.311C255.842 337.923 255.638 340.17 257.885 340.17H294.651C296.898 340.17 296.693 337.923 294.855 337.311C294.787 337.286 294.719 337.26 294.651 337.233C291.529 336.011 287.782 332.573 285.809 327.384C285.426 326.378 285.11 325.305 284.878 324.17C284.595 322.786 284.438 321.309 284.438 319.745V277.872L302.617 257.855H314.464C314.007 258.634 313.574 259.406 313.163 260.17C312.24 261.886 311.426 263.565 310.711 265.206C309.397 268.218 308.41 271.102 307.67 273.855C307.393 274.888 307.15 275.902 306.937 276.897C305.658 282.891 305.481 288.204 305.477 292.783C305.476 292.851 305.476 292.919 305.476 292.987C305.476 297.236 305.728 301.69 306.3 306.173C307.792 317.853 311.464 329.737 318.549 338.74C319.277 339.65 320.004 340.074 321.021 340.155C321.146 340.165 321.274 340.17 321.408 340.17H342.038C343.783 340.17 344.424 339.066 342.038 337.381C341.911 337.291 341.775 337.2 341.63 337.106C338.911 335.359 335.455 332.873 332.138 328.422C331.996 328.232 331.855 328.038 331.713 327.84C331.683 327.797 331.652 327.754 331.621 327.711C330.834 326.632 330.059 325.448 329.309 324.17C326.177 318.832 323.481 311.834 322.129 303.825C321.548 300.382 321.216 296.752 321.204 292.987C321.204 292.919 321.204 292.851 321.204 292.783C321.204 283.122 321.997 274.784 326.247 264.757C326.878 263.269 327.585 261.743 328.377 260.17C328.476 259.974 328.576 259.776 328.678 259.578C328.839 259.264 329.003 258.948 329.172 258.63C330.034 256.998 330.988 255.313 332.041 253.566C332.203 253.297 332.368 253.026 332.535 252.755C332.849 252.243 333.171 251.726 333.502 251.204C334.136 250.204 334.802 249.184 335.502 248.141C335.703 247.84 335.908 247.538 336.115 247.234C337.34 245.396 337.136 244.17 335.502 244.17H294.447C293.385 244.17 292.841 245.032 293.094 245.804C293.23 246.221 293.598 246.611 294.242 246.825C294.309 246.85 294.378 246.875 294.447 246.902C296.539 247.708 299.436 249.532 297.083 252.829C296.913 253.067 296.716 253.313 296.489 253.566L284.438 266.842V245.804C284.438 245.069 284.121 244.546 283.562 244.31C283.494 244.281 283.423 244.257 283.348 244.237ZM339.536 274.825C339.384 275.289 339.243 275.744 339.112 276.19C337.628 281.259 337.204 286.132 337.204 292.783C337.204 298.432 338.155 303.575 339.536 307.905V274.825ZM398.51 313.373C398.846 314.967 399.261 316.529 399.752 318.049C403.471 329.562 411.556 338.698 422.538 341.152C424.449 341.579 426.448 341.804 428.526 341.804C429.439 341.804 430.324 341.77 431.181 341.702C438.619 341.114 443.956 338.041 447.731 333.582C449.464 331.534 450.869 329.194 451.996 326.669C453.021 324.374 453.817 321.926 454.423 319.404C454.456 319.269 454.489 319.131 454.52 318.995C454.572 318.772 454.622 318.549 454.671 318.326C455.587 314.12 456 309.745 456.088 305.563C456.093 305.319 456.097 305.076 456.1 304.834C456.1 303.813 455.692 303.404 454.671 303.404H451.198C450.209 303.404 449.795 303.979 449.77 304.757C449.769 304.782 449.768 304.808 449.768 304.834C449.3 308.894 448.115 313.014 446.202 316.555C443.112 322.276 438.121 326.485 431.181 326.485C430.364 326.485 429.468 326.388 428.526 326.175C427.979 326.051 427.417 325.889 426.844 325.684C424.128 324.711 421.195 322.78 418.697 319.511C417.282 317.659 416.006 315.377 414.988 312.596C414.677 311.746 414.389 310.848 414.13 309.902C413.656 308.177 413.274 306.29 413.003 304.229L413.002 304.221C413.165 304.2 413.326 304.178 413.488 304.155C414.082 304.072 414.669 303.978 415.248 303.875C440.729 299.355 451.678 276.658 453.403 260.17C453.419 260.017 453.434 259.864 453.449 259.712C453.47 259.484 453.49 259.256 453.508 259.03C453.536 258.69 453.559 258.353 453.578 258.018C453.626 257.194 453.649 256.39 453.649 255.608C453.649 250.355 455.169 248.842 456.44 247.974C456.532 247.911 456.624 247.851 456.713 247.793C456.765 247.76 456.816 247.727 456.866 247.695C457.112 247.538 457.339 247.394 457.53 247.234C459.368 246.008 458.756 244.17 456.713 244.17H414.024C412.594 244.17 411.368 245.6 413.207 247.03C413.505 247.279 413.78 247.515 414.024 247.755C414.782 248.498 415.249 249.266 415.249 250.502C415.249 251.354 414.825 252.484 414.108 253.898C414.08 253.952 414.052 254.006 414.024 254.062C413.359 255.351 412.462 256.869 411.427 258.621C409.447 261.972 406.963 266.175 404.642 271.257C402.998 274.856 401.436 278.896 400.193 283.387C399.613 285.48 399.103 287.671 398.686 289.96C398.319 291.972 398.025 294.06 397.818 296.225C397.638 298.114 397.526 300.062 397.491 302.068C397.483 302.511 397.479 302.956 397.479 303.404C397.479 304.355 397.507 305.302 397.561 306.243C397.702 308.666 398.022 311.053 398.51 313.373ZM429.731 285.069C432.807 281.59 435.138 277.702 436.808 273.651C438.624 269.247 439.661 264.648 440.03 260.17C440.1 259.325 440.146 258.485 440.168 257.651H421.99C421.983 257.665 421.976 257.679 421.969 257.694C421.577 258.518 421.197 259.344 420.83 260.17C418.348 265.756 416.438 271.376 415.085 276.996C414.201 280.664 413.555 284.332 413.14 287.991C412.82 290.821 412.639 293.645 412.594 296.459C413.051 296.296 413.501 296.127 413.945 295.953C420.569 293.35 425.769 289.548 429.731 285.069ZM353.925 255.404H355.536V319.745C355.536 320.22 355.522 320.687 355.494 321.146C355.429 322.197 355.293 323.206 355.097 324.17C354.902 325.125 354.647 326.036 354.343 326.901C354.286 327.064 354.227 327.225 354.166 327.384M250.733 247.03C252.571 246.417 252.775 244.17 250.529 244.17H213.763C212.388 244.17 211.931 245.011 212.204 245.804C212.377 246.308 212.845 246.792 213.558 247.03C213.626 247.054 213.694 247.08 213.763 247.107C214.315 247.323 214.887 247.609 215.465 247.961C218.155 249.6 220.981 252.685 222.605 256.956C222.988 257.963 223.304 259.035 223.535 260.17C223.818 261.554 223.975 263.032 223.975 264.596V304.834L199.465 324.647V245.804C199.465 244.783 198.852 244.17 197.831 244.17H172.911C170.665 244.17 170.869 246.417 172.707 247.03C172.775 247.054 172.843 247.08 172.911 247.107C176.034 248.329 179.781 251.768 181.754 256.956C182.137 257.963 182.453 259.035 182.684 260.17C182.967 261.554 183.124 263.032 183.124 264.596V319.745C183.124 321.309 182.967 322.786 182.684 324.17C182.453 325.305 182.137 326.378 181.754 327.384C179.781 332.573 176.034 336.011 172.911 337.233C172.843 337.26 172.775 337.286 172.707 337.311C170.869 337.923 170.665 340.17 172.911 340.17H205.797C206.666 340.17 207.188 339.592 207.21 338.959C207.23 338.402 206.862 337.802 206.001 337.515C205.935 337.491 205.866 337.465 205.797 337.439C203.497 336.564 199.393 334.343 203.754 330.774L223.975 314.638V338.536C223.975 339.557 224.588 340.17 225.609 340.17H250.529C252.775 340.17 252.571 337.923 250.733 337.311C250.665 337.286 250.597 337.26 250.529 337.233C247.93 336.216 244.899 333.664 242.818 329.847C242.398 329.077 242.017 328.255 241.686 327.384C241.303 326.378 240.987 325.305 240.756 324.17C240.473 322.786 240.316 321.309 240.316 319.745V264.596C240.316 263.032 240.473 261.554 240.756 260.17C240.987 259.035 241.303 257.963 241.686 256.956C242.017 256.085 242.398 255.264 242.818 254.494C244.899 250.676 247.93 248.124 250.529 247.107C250.597 247.08 250.665 247.054 250.733 247.03ZM167.149 289.003C167.145 288.666 167.137 288.33 167.124 287.993C166.86 280.845 164.744 273.792 161.178 267.26C157.742 260.968 152.961 255.16 147.191 250.215C147.18 250.206 147.169 250.197 147.158 250.187C146.387 249.528 145.599 248.883 144.793 248.256C144.775 248.242 144.757 248.228 144.739 248.214C143.134 246.964 141.462 245.779 139.73 244.666C139.141 244.288 138.546 243.919 137.944 243.557L137.553 243.327C134.408 241.472 133.615 241.005 132.633 243.557C131.689 246.002 129.202 248.251 126.083 250.952C125.879 251.129 125.672 251.307 125.463 251.488C120.009 256.201 112.887 262.355 108.603 273.172C107.077 277.026 105.911 281.472 105.309 286.655C105.194 287.649 105.099 288.67 105.027 289.719C104.914 291.352 104.855 293.053 104.855 294.825C104.855 294.995 104.856 295.165 104.858 295.335C104.941 302.584 106.806 309.725 110.127 316.33C110.976 318.02 111.921 319.674 112.956 321.287C115.979 325.997 119.769 330.347 124.19 334.158C124.2 334.166 124.21 334.175 124.221 334.184C124.918 334.784 125.63 335.37 126.358 335.943C126.416 335.988 126.474 336.034 126.533 336.08C128.303 337.462 130.162 338.761 132.102 339.967C132.547 340.244 132.997 340.516 133.45 340.783L133.841 341.013C136.986 342.868 137.779 343.336 138.761 340.783C139.687 338.41 142.368 336.151 145.736 333.315C145.781 333.277 145.826 333.239 145.872 333.201C153.799 326.523 165.408 316.627 166.975 294.621C167.046 293.632 167.096 292.619 167.124 291.581C167.143 290.903 167.152 290.214 167.152 289.515C167.152 289.344 167.151 289.173 167.149 289.003ZM138.153 326.585C138.621 326.91 139.096 327.217 139.578 327.506C139.772 327.292 139.963 327.078 140.152 326.863C140.291 326.705 140.428 326.547 140.565 326.389C147.686 318.121 151.425 309.082 151.425 294.621C151.425 293.056 151.332 291.462 151.152 289.855C150.573 284.702 149.097 279.415 146.909 274.532C145.94 272.371 144.831 270.288 143.599 268.332C142.901 267.225 142.164 266.158 141.391 265.14C140.414 263.855 139.38 262.648 138.292 261.536C136.908 260.12 135.439 258.858 133.897 257.784C133.414 257.449 132.925 257.132 132.429 256.834C132.201 257.08 131.975 257.328 131.753 257.576C131.567 257.785 131.383 257.994 131.201 258.204C124.237 266.242 120.582 275.422 120.582 289.719C120.582 291.284 120.675 292.878 120.855 294.485C121.566 300.822 123.635 307.361 126.717 313.102C127.249 314.092 127.811 315.059 128.401 315.996C129.254 317.351 130.166 318.646 131.132 319.864C131.91 320.846 132.723 321.779 133.569 322.654C135.008 324.144 136.54 325.468 138.153 326.585ZM152.473 348.725C152.473 348.725 152.49 348.702 152.534 348.655C152.496 348.702 152.473 348.725 152.473 348.725ZM73.9673 280.709C73.1872 283.086 73.0344 285.235 73.0344 286.655C73.0344 293.735 71.1945 300.207 68.6231 304.378C66.1152 308.446 64.2027 308.647 63.5025 308.647C61.8006 308.647 59.3898 308.092 56.9562 304.913C54.1935 301.304 50.4982 293.031 50.4982 275.83C50.4982 267.211 51.263 259.161 52.8132 251.574C52.8227 251.761 52.8332 251.945 52.8449 252.124C53.3015 259.599 55.5277 266.98 60.6333 272.723C61.3253 273.502 62.0479 274.225 62.7967 274.893L65.7494 277.168C68.3275 278.87 71.115 280.035 73.9673 280.709ZM89.3565 285.337C89.1418 285.637 89.0344 286.057 89.0344 286.655C89.0344 290.353 88.6706 294.051 87.9671 297.609C85.4607 310.284 78.6428 321.18 68.6035 323.961C66.9854 324.409 65.2835 324.647 63.5025 324.647C50.8386 324.647 34.4982 314.23 34.4982 275.83C34.4982 268.668 34.9751 261.782 35.9509 255.144C38.1803 239.976 43.0138 226.101 50.7138 213.191C50.8901 212.896 51.0679 212.601 51.2471 212.306H79.0259C78.8655 212.601 78.7075 212.897 78.5518 213.191C75.8088 218.386 73.7829 223.524 72.3093 228.306C71.3286 231.489 70.5924 234.514 70.0522 237.294C69.9517 237.812 69.8579 238.321 69.7706 238.821C68.83 244.209 68.6417 248.543 68.8131 251.115C68.8321 251.431 68.8553 251.741 68.8828 252.046C69.4085 257.874 71.468 261.573 74.211 263.567C75.9533 264.834 77.9713 265.413 80.0471 265.413C80.3235 265.413 80.5961 265.4 80.8642 265.376C82.364 265.241 83.7251 264.735 84.8476 263.95C86.7864 262.593 88.0131 260.405 88.0131 257.855C88.0131 255.464 86.8503 253.229 85.0023 251.864C84.911 251.797 84.8181 251.732 84.7235 251.669C84.4196 251.466 84.0991 251.286 83.7637 251.132C82.8868 250.729 81.9089 250.502 80.8642 250.502C80.5911 250.502 80.318 250.522 80.0471 250.561C79.1026 250.694 78.1855 251.047 77.3918 251.523C77.3729 251.215 77.3571 250.909 77.3444 250.603C77.3436 250.584 77.3428 250.565 77.3421 250.546C77.334 250.347 77.3272 250.148 77.3217 249.949C77.1702 244.479 77.9899 239.343 79.4379 234.549C81.3818 228.112 84.4583 222.289 87.8378 217.093C88.711 215.751 89.6044 214.45 90.5037 213.191C91.05 212.427 91.5985 211.678 92.1459 210.945C94.135 208.28 96.1107 205.821 97.9191 203.571C98.5182 202.825 99.0989 202.102 99.6557 201.403C100.079 200.871 100.488 200.352 100.881 199.847C102.107 198.213 101.085 197.191 99.6557 197.191H40.4216C38.5833 197.191 37.7663 198.825 39.6046 200.051C39.6951 200.111 39.7827 200.171 39.8674 200.229C40.0681 200.368 40.2525 200.503 40.4216 200.635C41.6295 201.582 42.0557 202.433 42.0557 204.136C42.0557 204.75 41.8643 205.498 41.5146 206.382C41.2416 207.072 40.872 207.845 40.4216 208.702C39.5574 210.345 38.3954 212.297 37.046 214.564C32.1682 222.757 24.841 235.065 20.2754 251.795C17.7842 260.925 16.1152 271.37 16.1152 283.183C16.1152 316.885 32.6599 342.213 59.2131 342.213C65.2081 342.213 70.335 340.981 74.707 338.837C83.6163 334.469 89.3906 326.313 92.9872 317.075C95.2523 311.256 96.6536 305.008 97.4304 299.006C97.6128 297.596 97.7608 296.2 97.8774 294.825C98.1189 291.98 98.2259 289.231 98.2259 286.655C98.2259 285.225 98.2259 284.817 96.3876 284.613C94.5493 284.408 92.711 284.408 90.8727 284.613C90.1602 284.731 89.6548 284.919 89.3565 285.337ZM30.7294 213.364C30.9072 213.482 30.8638 213.47 30.6746 213.327C30.6929 213.339 30.7111 213.352 30.7294 213.364ZM26.6142 200.546C26.6793 200.361 26.732 200.258 26.732 200.258C26.732 200.258 26.7062 200.346 26.6142 200.546ZM349.883 255.404H353.925Z"
        fill="#36008E"
      />
      <path
        d="M89.3565 285.337C89.1418 285.637 89.0344 286.057 89.0344 286.655C89.0344 290.353 88.6706 294.051 87.9671 297.609C85.4607 310.284 78.6428 321.18 68.6035 323.961C66.9854 324.409 65.2835 324.647 63.5025 324.647C50.8386 324.647 34.4982 314.23 34.4982 275.83C34.4982 268.668 34.9751 261.782 35.9509 255.144C38.1803 239.976 43.0138 226.101 50.7138 213.191C50.8901 212.896 51.0679 212.601 51.2471 212.306H79.0259C78.8655 212.601 78.7075 212.897 78.5518 213.191C75.8088 218.386 73.7829 223.524 72.3093 228.306C71.3286 231.489 70.5924 234.514 70.0522 237.294C69.9517 237.812 69.8579 238.321 69.7706 238.821C68.83 244.209 68.6417 248.543 68.8131 251.115C68.8321 251.431 68.8553 251.741 68.8828 252.046C69.4085 257.874 71.468 261.573 74.211 263.567C75.9533 264.834 77.9713 265.413 80.0471 265.413C80.3235 265.413 80.5961 265.4 80.8642 265.376C82.364 265.241 83.7251 264.735 84.8476 263.95C86.7864 262.593 88.0131 260.405 88.0131 257.855C88.0131 255.464 86.8503 253.229 85.0023 251.864C84.911 251.797 84.8181 251.732 84.7235 251.669C84.4196 251.466 84.0991 251.286 83.7637 251.132C82.8868 250.729 81.9089 250.502 80.8642 250.502C80.5911 250.502 80.318 250.522 80.0471 250.561C79.1026 250.694 78.1855 251.047 77.3918 251.523C77.3729 251.215 77.3571 250.909 77.3444 250.603L77.3421 250.546C77.334 250.347 77.3272 250.148 77.3217 249.949C77.1702 244.479 77.9899 239.343 79.4379 234.549C81.3818 228.112 84.4583 222.289 87.8378 217.093C88.711 215.751 89.6044 214.45 90.5037 213.191C91.05 212.427 91.5985 211.678 92.1459 210.945C94.135 208.28 96.1107 205.821 97.9191 203.571C98.5182 202.825 99.0989 202.102 99.6557 201.403C100.079 200.871 100.488 200.352 100.881 199.847C102.107 198.213 101.085 197.191 99.6557 197.191H40.4216C38.5833 197.191 37.7663 198.825 39.6046 200.051C39.6951 200.111 39.7827 200.171 39.8674 200.229C40.0681 200.368 40.2525 200.503 40.4216 200.635C41.6295 201.582 42.0557 202.433 42.0557 204.136C42.0557 204.75 41.8643 205.498 41.5146 206.382C41.2416 207.072 40.872 207.845 40.4216 208.702C39.5574 210.345 38.3954 212.297 37.046 214.564C32.1682 222.757 24.841 235.065 20.2754 251.795C17.7842 260.925 16.1152 271.37 16.1152 283.183C16.1152 316.885 32.6599 342.213 59.2131 342.213C65.2081 342.213 70.335 340.981 74.707 338.837C83.6163 334.469 89.3906 326.313 92.9872 317.075C95.2523 311.256 96.6536 305.008 97.4304 299.006C97.6128 297.596 97.7608 296.2 97.8774 294.825C98.1189 291.98 98.2259 289.231 98.2259 286.655C98.2259 285.225 98.2259 284.817 96.3876 284.613C94.5493 284.408 92.711 284.408 90.8727 284.613C90.1602 284.731 89.6548 284.919 89.3565 285.337Z"
        fill="#36008E"
      />
      <path
        fill-rule="evenodd"
        clip-rule="evenodd"
        d="M167.124 287.993C167.137 288.33 167.145 288.666 167.149 289.003C167.151 289.173 167.152 289.344 167.152 289.515C167.152 290.214 167.143 290.903 167.124 291.581C167.096 292.619 167.046 293.632 166.975 294.621C165.408 316.627 153.799 326.523 145.872 333.201L145.736 333.315C142.368 336.151 139.687 338.41 138.761 340.783C137.779 343.336 136.986 342.868 133.841 341.013L133.45 340.783C132.997 340.516 132.547 340.244 132.102 339.967C130.162 338.761 128.303 337.462 126.533 336.08L126.358 335.943C125.63 335.37 124.918 334.784 124.221 334.184L124.19 334.158C119.769 330.347 115.979 325.997 112.956 321.287C111.921 319.674 110.976 318.02 110.127 316.33C106.806 309.725 104.941 302.584 104.858 295.335C104.856 295.165 104.855 294.995 104.855 294.825C104.855 293.053 104.914 291.352 105.027 289.719C105.099 288.67 105.194 287.649 105.309 286.655C105.911 281.472 107.077 277.026 108.603 273.172C112.887 262.355 120.009 256.201 125.463 251.488L126.083 250.952C129.202 248.251 131.689 246.002 132.633 243.557C133.615 241.005 134.408 241.472 137.553 243.327L137.944 243.557C138.546 243.919 139.141 244.288 139.73 244.666C141.462 245.779 143.134 246.964 144.739 248.214L144.793 248.256C145.599 248.883 146.387 249.528 147.158 250.187L147.191 250.215C152.961 255.16 157.742 260.968 161.178 267.26C164.744 273.792 166.86 280.845 167.124 287.993ZM139.578 327.506C139.096 327.217 138.621 326.91 138.153 326.585C136.54 325.468 135.008 324.144 133.569 322.654C132.723 321.779 131.91 320.846 131.132 319.864C130.166 318.646 129.254 317.351 128.401 315.996C127.811 315.059 127.249 314.092 126.717 313.102C123.635 307.361 121.566 300.822 120.855 294.485C120.675 292.878 120.582 291.284 120.582 289.719C120.582 275.422 124.237 266.242 131.201 258.204C131.383 257.994 131.567 257.785 131.753 257.576C131.975 257.328 132.201 257.08 132.429 256.834C132.925 257.132 133.414 257.449 133.897 257.784C135.439 258.858 136.908 260.12 138.292 261.536C139.38 262.648 140.414 263.855 141.391 265.14C142.164 266.158 142.901 267.225 143.599 268.332C144.831 270.288 145.94 272.371 146.909 274.532C149.097 279.415 150.573 284.702 151.152 289.855C151.332 291.462 151.425 293.056 151.425 294.621C151.425 309.082 147.686 318.121 140.565 326.389C140.428 326.547 140.291 326.705 140.152 326.863C139.963 327.078 139.772 327.292 139.578 327.506Z"
        fill="#36008E"
      />
      <path
        d="M250.733 247.03C252.571 246.417 252.775 244.17 250.529 244.17H213.763C212.388 244.17 211.931 245.011 212.204 245.804C212.377 246.308 212.845 246.792 213.558 247.03C213.626 247.054 213.694 247.08 213.763 247.107C214.315 247.323 214.887 247.609 215.465 247.961C218.155 249.6 220.981 252.685 222.605 256.956C222.988 257.963 223.304 259.035 223.535 260.17C223.818 261.554 223.975 263.032 223.975 264.596V304.834L199.465 324.647V245.804C199.465 244.783 198.852 244.17 197.831 244.17H172.911C170.665 244.17 170.869 246.417 172.707 247.03C172.775 247.054 172.843 247.08 172.911 247.107C176.034 248.329 179.781 251.768 181.754 256.956C182.137 257.963 182.453 259.035 182.684 260.17C182.967 261.554 183.124 263.032 183.124 264.596V319.745C183.124 321.309 182.967 322.786 182.684 324.17C182.453 325.305 182.137 326.378 181.754 327.384C179.781 332.573 176.034 336.011 172.911 337.233C172.843 337.26 172.775 337.286 172.707 337.311C170.869 337.923 170.665 340.17 172.911 340.17H205.797C206.666 340.17 207.188 339.592 207.21 338.959C207.23 338.402 206.862 337.802 206.001 337.515C205.935 337.491 205.866 337.465 205.797 337.439C203.497 336.564 199.393 334.343 203.754 330.774L223.975 314.638V338.536C223.975 339.557 224.588 340.17 225.609 340.17H250.529C252.775 340.17 252.571 337.923 250.733 337.311C250.665 337.286 250.597 337.26 250.529 337.233C247.93 336.216 244.899 333.664 242.818 329.847C242.398 329.077 242.017 328.255 241.686 327.384C241.303 326.378 240.987 325.305 240.756 324.17C240.473 322.786 240.316 321.309 240.316 319.745V264.596C240.316 263.032 240.473 261.554 240.756 260.17C240.987 259.035 241.303 257.963 241.686 256.956C242.017 256.085 242.398 255.264 242.818 254.494C244.899 250.676 247.93 248.124 250.529 247.107C250.597 247.08 250.665 247.054 250.733 247.03Z"
        fill="#36008E"
      />
      <path
        d="M282.804 244.17C283.001 244.17 283.183 244.193 283.348 244.237C283.423 244.257 283.494 244.281 283.562 244.31C284.121 244.546 284.438 245.069 284.438 245.804V266.842L296.489 253.566C296.716 253.313 296.913 253.067 297.083 252.829C299.436 249.532 296.539 247.708 294.447 246.902C294.378 246.875 294.309 246.85 294.242 246.825C293.598 246.611 293.23 246.221 293.094 245.804C292.841 245.032 293.385 244.17 294.447 244.17H335.502C337.136 244.17 337.34 245.396 336.115 247.234C335.908 247.538 335.703 247.84 335.502 248.141C334.802 249.184 334.136 250.204 333.502 251.204C333.171 251.726 332.849 252.243 332.535 252.755C332.368 253.026 332.203 253.297 332.041 253.566C330.988 255.313 330.034 256.998 329.172 258.63C329.003 258.948 328.839 259.264 328.678 259.578C328.576 259.776 328.476 259.974 328.377 260.17C327.585 261.743 326.878 263.269 326.247 264.757C321.997 274.784 321.204 283.122 321.204 292.783L321.204 292.987C321.216 296.752 321.548 300.382 322.129 303.825C323.481 311.834 326.177 318.832 329.309 324.17C330.059 325.448 330.834 326.632 331.621 327.711L331.713 327.84C331.855 328.038 331.996 328.232 332.138 328.422C335.455 332.873 338.911 335.359 341.63 337.106C341.775 337.2 341.911 337.291 342.038 337.381C344.424 339.066 343.783 340.17 342.038 340.17H321.408C321.274 340.17 321.146 340.165 321.021 340.155C320.004 340.074 319.277 339.65 318.549 338.74C311.464 329.737 307.792 317.853 306.3 306.173C305.728 301.69 305.476 297.236 305.476 292.987L305.477 292.783C305.481 288.204 305.658 282.891 306.937 276.897C307.15 275.902 307.393 274.888 307.67 273.855C308.41 271.102 309.397 268.218 310.711 265.206C311.426 263.565 312.24 261.886 313.163 260.17C313.574 259.406 314.007 258.634 314.464 257.855H302.617L284.438 277.872V319.745C284.438 321.309 284.595 322.786 284.878 324.17C285.11 325.305 285.426 326.378 285.809 327.384C287.782 332.573 291.529 336.011 294.651 337.233C294.719 337.26 294.787 337.286 294.855 337.311C296.693 337.923 296.898 340.17 294.651 340.17H257.885C255.638 340.17 255.842 337.923 257.681 337.311C257.748 337.286 257.816 337.26 257.885 337.233C260.483 336.216 263.514 333.664 265.595 329.847C266.015 329.077 266.396 328.255 266.727 327.384C267.11 326.378 267.426 325.305 267.658 324.17C267.94 322.786 268.098 321.309 268.098 319.745V264.596C268.098 263.032 267.94 261.554 267.658 260.17C267.426 259.035 267.11 257.963 266.727 256.956C266.396 256.085 266.015 255.264 265.595 254.494C263.514 250.676 260.483 248.124 257.885 247.107C257.816 247.08 257.748 247.054 257.681 247.03C255.842 246.417 255.638 244.17 257.885 244.17H282.804Z"
        fill="#36008E"
      />
      <path
        d="M339.112 276.19C339.243 275.744 339.384 275.289 339.536 274.825V307.905C338.155 303.575 337.204 298.432 337.204 292.783C337.204 286.132 337.628 281.259 339.112 276.19Z"
        fill="#36008E"
      />
      <path
        d="M355.536 255.404H353.925L354.166 327.384L355.494 321.146C355.522 320.687 355.536 320.22 355.536 319.745V255.404Z"
        fill="#36008E"
      />
      <path
        fill-rule="evenodd"
        clip-rule="evenodd"
        d="M399.752 318.049C399.261 316.529 398.846 314.967 398.51 313.373C398.022 311.053 397.702 308.666 397.561 306.243C397.507 305.302 397.479 304.355 397.479 303.404C397.479 302.956 397.483 302.511 397.491 302.068C397.526 300.062 397.638 298.114 397.818 296.225C398.025 294.06 398.319 291.972 398.686 289.96C399.103 287.671 399.613 285.48 400.193 283.387C401.436 278.896 402.998 274.856 404.642 271.257C406.963 266.175 409.447 261.972 411.427 258.621C412.462 256.869 413.359 255.351 414.024 254.062L414.108 253.898C414.825 252.484 415.249 251.354 415.249 250.502C415.249 249.266 414.782 248.498 414.024 247.755C413.78 247.515 413.505 247.279 413.207 247.03C411.368 245.6 412.594 244.17 414.024 244.17H456.713C458.756 244.17 459.368 246.008 457.53 247.234C457.339 247.394 457.112 247.538 456.866 247.695L456.713 247.793C456.624 247.851 456.532 247.911 456.44 247.974C455.169 248.842 453.649 250.355 453.649 255.608C453.649 256.39 453.626 257.194 453.578 258.018C453.559 258.353 453.536 258.69 453.508 259.03C453.49 259.256 453.47 259.484 453.449 259.712C453.434 259.864 453.419 260.017 453.403 260.17C451.678 276.658 440.729 299.355 415.248 303.875C414.669 303.978 414.082 304.072 413.488 304.155C413.326 304.178 413.165 304.2 413.002 304.221L413.003 304.229C413.274 306.29 413.656 308.177 414.13 309.902C414.389 310.848 414.677 311.746 414.988 312.596C416.006 315.377 417.282 317.659 418.697 319.511C421.195 322.78 424.128 324.711 426.844 325.684C427.417 325.889 427.979 326.051 428.526 326.175C429.468 326.388 430.364 326.485 431.181 326.485C438.121 326.485 443.112 322.276 446.202 316.555C448.115 313.014 449.3 308.894 449.768 304.834C449.768 304.808 449.769 304.782 449.77 304.757C449.795 303.979 450.209 303.404 451.198 303.404H454.671C455.692 303.404 456.1 303.813 456.1 304.834C456.097 305.076 456.093 305.319 456.088 305.563C456 309.745 455.587 314.12 454.671 318.326C454.622 318.549 454.572 318.772 454.52 318.995C454.489 319.131 454.456 319.269 454.423 319.404C453.817 321.926 453.021 324.374 451.996 326.669C450.869 329.194 449.464 331.534 447.731 333.582C443.956 338.041 438.619 341.114 431.181 341.702C430.324 341.77 429.439 341.804 428.526 341.804C426.448 341.804 424.449 341.579 422.538 341.152C411.556 338.698 403.471 329.562 399.752 318.049ZM436.808 273.651C435.138 277.702 432.807 281.59 429.731 285.069C425.769 289.548 420.569 293.35 413.945 295.953C413.501 296.127 413.051 296.296 412.594 296.459C412.639 293.645 412.82 290.821 413.14 287.991C413.555 284.332 414.201 280.664 415.085 276.996C416.438 271.376 418.348 265.756 420.83 260.17C421.197 259.344 421.577 258.518 421.969 257.694L421.99 257.651H440.168C440.146 258.485 440.1 259.325 440.03 260.17C439.661 264.648 438.624 269.247 436.808 273.651Z"
        fill="#36008E"
      />
      <path
        d="M464.534 340.17C463.833 340.17 463.37 339.951 463.122 339.632C462.574 338.927 463.065 337.732 464.33 337.311C464.397 337.286 464.465 337.26 464.534 337.233L464.586 337.213C467.697 335.973 471.414 332.544 473.376 327.384C473.759 326.378 474.075 325.305 474.307 324.17C474.589 322.786 474.747 321.309 474.747 319.745V264.596C474.747 263.032 474.589 261.554 474.307 260.17C474.075 259.035 473.759 257.963 473.376 256.956C473.034 256.056 472.638 255.209 472.202 254.417C470.122 250.642 467.115 248.117 464.534 247.107C464.465 247.08 464.397 247.054 464.33 247.03C462.491 246.417 462.287 244.17 464.534 244.17H489.453C490.474 244.17 491.087 244.783 491.087 245.804V265.208L501.913 253.77C502.187 253.496 502.431 253.227 502.647 252.964L502.686 252.915C502.947 252.592 503.165 252.276 503.342 251.968C504.211 250.457 504.106 249.122 503.342 247.882C503.077 247.452 502.732 247.032 502.321 246.621C502.03 246.33 501.832 246.056 501.715 245.804C501.258 244.818 502.041 244.17 503.342 244.17H528.874C530.1 244.17 530.508 245.191 529.691 246.213C529.415 246.507 529.143 246.804 528.874 247.104C525.836 250.494 523.274 254.236 521.218 257.962C520.811 258.699 520.424 259.437 520.057 260.17C519.97 260.345 519.883 260.519 519.798 260.693C519.088 262.147 518.457 263.584 517.908 264.982C517.676 265.573 517.458 266.157 517.255 266.733C516.46 268.987 515.889 271.108 515.552 272.996C515.311 274.345 515.189 275.574 515.189 276.647C515.189 276.785 515.19 276.922 515.191 277.055C515.196 277.592 515.212 278.088 515.239 278.551C515.322 280.009 515.509 281.138 515.802 282.162C517.027 281.345 518.253 280.936 519.274 280.936C519.513 280.936 519.747 280.947 519.976 280.969C523.284 281.285 525.606 283.83 525.606 287.268C525.606 289.615 524.524 291.546 522.785 292.636C521.8 293.253 520.604 293.6 519.274 293.6C515.311 293.6 512.611 291.072 511.024 287.268C510.651 286.374 510.339 285.409 510.087 284.389C510.041 284.205 509.998 284.019 509.956 283.832C509.657 282.487 509.457 281.055 509.353 279.573C509.295 278.748 509.266 277.906 509.266 277.055C509.266 276.921 509.267 276.784 509.268 276.647C509.279 275.773 509.325 274.838 509.408 273.855C509.439 273.488 509.476 273.115 509.518 272.735C509.674 271.317 509.905 269.816 510.22 268.269C510.315 267.802 510.418 267.332 510.528 266.858C510.798 265.699 511.114 264.521 511.48 263.338C511.521 263.206 511.562 263.075 511.604 262.943C511.729 262.553 511.858 262.163 511.993 261.774C512.179 261.238 512.375 260.703 512.582 260.17C512.883 259.393 513.207 258.62 513.555 257.855H507.836L491.087 275.625V319.745C491.087 321.309 491.244 322.786 491.527 324.17C491.759 325.305 492.075 326.378 492.458 327.384C494.431 332.573 498.178 336.011 501.3 337.233C501.368 337.26 501.436 337.286 501.504 337.311C503.342 337.923 503.547 340.17 501.3 340.17H464.534Z"
        fill="#36008E"
      />
      <path
        d="M535.856 357.337C535.687 357.054 535.546 356.75 535.437 356.43C535.275 355.951 535.185 355.433 535.185 354.886C535.185 354.487 535.225 354.1 535.302 353.73C535.521 352.677 536.043 351.757 536.817 351.07C537.641 350.338 538.752 349.87 540.087 349.791C540.221 349.783 540.357 349.779 540.496 349.779C543.357 349.779 546.079 351.443 546.949 354.886C547.135 355.621 547.236 356.438 547.236 357.337C547.236 357.449 547.234 357.562 547.231 357.677C547.218 358.178 547.177 358.708 547.11 359.262C547.065 359.641 547.008 360.031 546.941 360.431C546.771 361.442 546.534 362.519 546.248 363.645C546.216 363.771 546.184 363.898 546.15 364.025C545.566 366.266 544.8 368.689 543.987 371.158C543.717 371.98 543.441 372.807 543.165 373.635L543.151 373.676L567.253 373.677L567.383 373.595L567.495 373.523C568.528 372.849 569.429 372.074 570.207 371.244L570.288 371.158C573.014 368.204 574.198 364.571 574.198 362.239C574.198 359.694 573.426 357.548 572.088 355.681C570.125 352.943 566.943 350.806 563.187 348.894C562.649 348.62 562.098 348.351 561.538 348.085C560.828 347.748 560.102 347.417 559.363 347.089C558.656 346.775 557.938 346.464 557.212 346.154L556.5 345.851C555.799 345.554 555.091 345.258 554.381 344.96C550.257 343.232 546.032 341.462 542.295 339.307C541.681 338.953 541.08 338.588 540.496 338.212C538.681 337.045 537.018 335.763 535.584 334.321C532.349 331.066 530.283 326.997 530.283 321.592C530.283 319.643 530.56 317.806 531.036 316.077C532.722 309.954 536.896 305.18 540.05 301.575C541.06 300.42 541.965 299.385 542.65 298.464C543.025 297.959 543.335 297.489 543.559 297.051C543.822 296.54 543.968 296.074 543.968 295.652C543.968 295.087 543.843 294.648 543.559 294.264C543.329 293.953 542.995 293.679 542.538 293.405C541.517 292.792 541.721 291.158 543.559 291.158H583.593C584.615 291.158 585.636 291.771 584.002 293.813L583.593 294.356L583.128 294.973C581.949 296.533 580.667 298.228 579.429 300.044C579.028 300.631 578.633 301.231 578.246 301.842C577.574 302.906 576.93 304.006 576.34 305.139C576.15 305.505 575.965 305.875 575.787 306.248C575.662 306.508 575.541 306.77 575.423 307.034L575.368 307.158C575.031 307.921 574.723 308.697 574.451 309.487C573.719 311.615 573.249 313.838 573.18 316.143L573.176 316.282C573.614 315.99 574.155 315.802 574.727 315.719C574.822 315.705 574.918 315.694 575.015 315.686C575.15 315.674 575.287 315.669 575.423 315.669C576.335 315.669 577.174 315.933 577.883 316.388C578.348 316.687 578.756 317.066 579.093 317.507C579.74 318.353 580.121 319.424 580.121 320.571C580.121 320.739 580.112 320.905 580.094 321.068C579.957 322.315 579.312 323.38 578.423 324.151C577.57 324.89 576.492 325.358 575.423 325.454C575.287 325.467 575.15 325.473 575.015 325.473C573.751 325.473 572.624 325.121 571.67 324.508C570.332 323.648 569.336 322.275 568.779 320.639L568.756 320.571C568.657 320.272 568.573 319.964 568.504 319.65C568.353 318.964 568.274 318.245 568.274 317.507C568.274 317.087 568.28 316.676 568.292 316.274L568.295 316.171C568.348 314.446 568.502 312.886 568.721 311.449C568.798 310.944 568.883 310.455 568.974 309.978C569.164 308.987 569.382 308.053 569.613 307.158C569.839 306.286 570.078 305.451 570.317 304.639H548.053C547.258 305.335 546.523 306.103 545.866 306.933C545.807 307.007 545.748 307.083 545.691 307.158C543.751 309.695 542.538 312.776 542.538 316.077C542.538 318.222 543.21 320.027 544.391 321.592C546.511 324.401 550.27 326.438 554.724 328.273C555.212 328.474 555.707 328.673 556.21 328.87C556.432 328.957 556.656 329.043 556.88 329.13C558.444 329.73 560.069 330.319 561.72 330.916L561.725 330.918C562.956 331.364 564.201 331.814 565.445 332.279C566.483 332.667 567.521 333.065 568.55 333.477C570.128 334.111 571.685 334.779 573.189 335.503C573.807 335.8 574.416 336.106 575.015 336.423C577.255 337.609 579.342 338.943 581.162 340.492C584 342.91 586.188 345.854 587.294 349.585C587.373 349.849 587.446 350.118 587.513 350.39C587.928 352.068 588.132 353.9 588.087 355.907C588.049 357.828 587.772 359.626 587.294 361.326C587.208 361.633 587.115 361.938 587.016 362.239C584.747 369.124 579.169 374.403 572.972 379.805C572.499 380.231 572.146 380.668 571.899 381.111C571.843 381.211 571.792 381.312 571.747 381.413C571.305 382.396 571.359 383.401 571.747 384.375C571.901 384.764 572.109 385.148 572.359 385.524C573.176 386.75 572.564 387.158 571.747 387.158H528.036C526.81 387.158 526.402 386.341 527.015 385.32C527.357 384.881 527.697 384.442 528.036 384.003C530.317 381.04 532.509 378.049 534.521 375.001C534.886 374.448 535.245 373.894 535.597 373.337C535.977 372.738 536.349 372.136 536.713 371.531L536.937 371.158C537.996 369.382 538.984 367.583 539.883 365.757C539.952 365.618 540.02 365.479 540.087 365.339C540.225 365.054 540.362 364.767 540.496 364.48C541.339 362.673 542.093 360.838 542.742 358.971C542.057 359.485 541.227 359.712 540.496 359.771C540.355 359.783 540.219 359.788 540.087 359.788C538.419 359.788 536.751 358.842 535.856 357.337Z"
        fill="#36008E"
      />
      <path
        d="M514.807 327.718C512.841 325.415 510.39 323.715 507.949 322.661C507.91 322.612 507.866 322.553 507.818 322.484C507.496 322.013 507.087 321.152 507.087 319.745V307.201L507.801 306.725C510.294 308.094 513.145 309.064 516.354 309.434C515.107 313.029 514.283 317.091 514.283 321.592C514.283 323.738 514.466 325.779 514.807 327.718Z"
        fill="#36008E"
      />
      <path
        fill-rule="evenodd"
        clip-rule="evenodd"
        d="M602.855 307.158C603.137 308.542 603.294 310.02 603.294 311.584V405.541C603.294 407.105 603.137 408.582 602.855 409.967C602.623 411.102 602.307 412.174 601.924 413.181C599.951 418.369 596.204 421.808 593.082 423.03C593.013 423.057 592.945 423.082 592.877 423.107C591.039 423.72 590.835 425.967 593.082 425.967H630.869C633.32 425.967 633.116 423.72 631.073 423.107C631.005 423.084 630.937 423.061 630.869 423.037C627.597 421.87 623.66 418.656 621.422 413.81C620.875 412.624 620.429 411.341 620.12 409.967C619.808 408.582 619.635 407.105 619.635 405.541V387.158H641.694C643.124 387.158 644.35 385.32 642.103 384.299C641.963 384.238 641.826 384.172 641.694 384.1C640.483 383.437 639.652 382.26 639.652 380.418C639.652 379.727 639.869 378.936 640.261 378.041C640.61 377.245 641.098 376.366 641.694 375.402C642.65 373.86 643.886 372.1 645.28 370.114C647.688 366.684 650.57 362.58 653.3 357.754C654.596 355.464 655.857 353.012 657.018 350.392C660.189 343.233 662.607 334.824 662.906 325.064C662.927 324.39 662.937 323.709 662.937 323.022C662.937 318.813 662.467 314.893 661.579 311.326C658.244 297.931 649.008 289.524 636.588 289.524C636.182 289.524 635.778 289.537 635.376 289.564C634.405 289.628 633.445 289.77 632.503 289.988C630.4 290.475 628.384 291.344 626.525 292.588C623.828 294.393 621.46 296.987 619.635 300.35V292.588C619.635 291.771 619.022 291.158 618.205 291.158H593.082C590.835 291.158 591.039 293.405 592.877 294.018C592.945 294.042 593.013 294.068 593.082 294.095C595.121 294.893 597.426 296.637 599.33 299.196C600.342 300.555 601.24 302.144 601.924 303.944C602.307 304.951 602.623 306.023 602.855 307.158ZM632.911 373.677C633.402 372.851 633.888 372.012 634.369 371.158C634.796 370.401 635.218 369.633 635.635 368.854C642.185 356.624 647.414 341.795 647.414 325.064C647.414 324.364 647.4 323.683 647.372 323.022C646.864 310.646 641.718 304.977 636.588 303.12C635.194 302.615 633.801 302.392 632.503 302.392C630.423 302.392 628.272 302.863 626.338 303.988C625.598 304.419 624.889 304.946 624.229 305.579C621.532 308.163 619.635 312.518 619.635 319.345V373.677H632.911Z"
        fill="#36008E"
      />
      <path
        fill-rule="evenodd"
        clip-rule="evenodd"
        d="M693.906 388.14C682.923 385.686 674.838 376.55 671.119 365.037C670.648 363.579 670.247 362.083 669.919 360.557L669.877 360.361C669.389 358.042 669.069 355.654 668.928 353.231C668.874 352.29 668.846 351.343 668.846 350.392C668.846 347.911 668.966 345.519 669.185 343.213C669.392 341.048 669.686 338.96 670.053 336.948C670.988 331.813 672.393 327.174 673.995 323.022C675.34 319.537 676.825 316.394 678.289 313.588C679.884 310.533 681.454 307.876 682.794 305.609L682.796 305.605C683.83 303.855 684.727 302.338 685.391 301.05L685.475 300.886C686.192 299.472 686.616 298.342 686.616 297.49C686.616 296.254 686.149 295.486 685.391 294.742C685.147 294.503 684.872 294.266 684.574 294.018C682.735 292.588 683.961 291.158 685.391 291.158H728.08C730.123 291.158 730.735 292.996 728.897 294.222C728.706 294.381 728.479 294.527 728.233 294.683L728.08 294.781C727.991 294.839 727.899 294.899 727.807 294.962C727.385 295.25 726.935 295.609 726.523 296.153C725.694 297.247 725.016 299.087 725.016 302.596C725.016 303.378 724.993 304.182 724.945 305.006C724.913 305.562 724.87 306.127 724.816 306.7C724.801 306.852 724.786 307.005 724.77 307.158C723.045 323.646 712.096 346.343 686.615 350.863C686.036 350.966 685.449 351.06 684.855 351.143C684.693 351.166 684.532 351.188 684.369 351.209L684.37 351.217C684.641 353.278 685.023 355.165 685.497 356.89C685.756 357.836 686.044 358.734 686.355 359.584C687.373 362.365 688.649 364.647 690.064 366.498C692.562 369.768 695.495 371.699 698.211 372.672C698.784 372.877 699.346 373.039 699.893 373.163C700.835 373.376 701.731 373.473 702.548 373.473C709.488 373.473 714.479 369.264 717.569 363.543C719.482 360.002 720.667 355.882 721.135 351.822C721.135 351.796 721.136 351.77 721.137 351.745C721.162 350.967 721.576 350.392 722.565 350.392H726.038C726.218 350.392 726.38 350.405 726.523 350.432C727.191 350.556 727.467 350.981 727.467 351.822C727.464 352.064 727.46 352.307 727.455 352.551C727.385 355.907 727.105 359.387 726.523 362.804C726.38 363.645 726.219 364.483 726.038 365.314C725.989 365.537 725.939 365.76 725.887 365.983C725.856 366.119 725.823 366.257 725.79 366.392C725.49 367.641 725.143 368.872 724.745 370.075C722.805 375.936 719.651 381.14 714.729 384.563C711.487 386.818 707.48 388.3 702.548 388.69C701.691 388.757 700.806 388.792 699.893 388.792C697.815 388.792 695.816 388.567 693.906 388.14ZM708.175 320.639C706.504 324.69 704.174 328.578 701.098 332.057C697.136 336.536 691.936 340.338 685.312 342.94C684.868 343.115 684.418 343.284 683.961 343.447C684.006 340.633 684.187 337.809 684.507 334.979C684.922 331.32 685.568 327.652 686.452 323.984C687.805 318.364 689.715 312.744 692.197 307.158C692.564 306.332 692.944 305.506 693.336 304.682L693.357 304.639H711.535C711.513 305.473 711.467 306.313 711.397 307.158C711.028 311.636 709.991 316.234 708.175 320.639Z"
        fill="#36008E"
      />
      <path
        d="M742.523 366.733C742.523 368.297 742.366 369.774 742.083 371.158C741.852 372.293 741.536 373.366 741.153 374.372C740.404 376.341 739.4 378.058 738.271 379.497C736.426 381.851 734.248 383.463 732.31 384.221C732.242 384.248 732.174 384.274 732.106 384.299C730.268 384.911 730.064 387.158 732.31 387.158H769.076C771.323 387.158 771.119 384.911 769.281 384.299C769.213 384.274 769.145 384.248 769.076 384.221C766.394 383.171 763.251 380.486 761.167 376.46C760.825 375.8 760.512 375.103 760.234 374.372C759.851 373.366 759.535 372.293 759.303 371.158C759.021 369.774 758.864 368.297 758.864 366.733V245.813C758.864 245.273 758.692 244.847 758.379 244.566C758.101 244.315 757.711 244.179 757.23 244.179H732.31C730.064 244.179 730.268 246.426 732.106 247.039C732.174 247.064 732.242 247.089 732.31 247.116C735.432 248.338 739.18 251.777 741.153 256.965C741.536 257.972 741.852 259.044 742.083 260.179C742.366 261.564 742.523 263.041 742.523 264.605V366.733Z"
        fill="#36008E"
      />
      <path
        d="M775.994 247.116C775.926 247.089 775.857 247.064 775.79 247.039C775.408 246.912 775.097 246.714 774.864 246.481C774.66 246.278 774.516 246.048 774.435 245.813C774.266 245.321 774.378 244.811 774.815 244.494C775.083 244.301 775.472 244.179 775.994 244.179H800.913C801.934 244.179 802.547 244.792 802.547 245.813V366.733C802.547 368.297 802.704 369.774 802.987 371.158C803.219 372.293 803.535 373.366 803.918 374.372C805.891 379.561 809.638 382.999 812.76 384.221C812.828 384.248 812.896 384.274 812.964 384.299C814.802 384.911 815.007 387.158 812.76 387.158H775.994C773.747 387.158 773.951 384.911 775.79 384.299C775.857 384.274 775.926 384.248 775.994 384.221C778.676 383.171 781.819 380.486 783.903 376.46C784.245 375.8 784.558 375.103 784.836 374.372C785.219 373.366 785.535 372.293 785.767 371.158C786.049 369.774 786.207 368.297 786.207 366.733V264.605C786.207 263.041 786.049 261.564 785.767 260.179C785.535 259.044 785.219 257.972 784.836 256.965C782.863 251.777 779.116 248.338 775.994 247.116Z"
        fill="#36008E"
      />
      <path
        d="M73.9673 280.709C73.1872 283.086 73.0344 285.235 73.0344 286.655C73.0344 293.735 71.1945 300.207 68.6231 304.378C66.1152 308.446 64.2027 308.647 63.5025 308.647C61.8006 308.647 59.3898 308.092 56.9562 304.913C54.1935 301.304 50.4982 293.031 50.4982 275.83C50.4982 267.211 51.263 259.161 52.8132 251.574C52.8227 251.761 52.8332 251.945 52.8449 252.124C53.3015 259.599 55.5277 266.98 60.6333 272.723C61.3253 273.502 62.0479 274.225 62.7967 274.893L65.7494 277.168C68.3275 278.87 71.115 280.035 73.9673 280.709Z"
        fill="#36008E"
      />
      <path
        d="M464.533 340.17C462.286 340.17 462.49 337.923 464.329 337.311C468.822 335.677 474.746 329.345 474.746 319.745V264.596C474.746 254.996 468.822 248.664 464.329 247.03C462.49 246.417 462.286 244.17 464.533 244.17H489.452C490.473 244.17 491.086 244.783 491.086 245.804V265.208L501.912 253.77C504.771 250.911 504.363 248.664 502.32 246.621C500.89 245.191 501.707 244.17 503.341 244.17H528.873C530.099 244.17 530.507 245.191 529.69 246.213C520.295 256.221 515.188 269.702 515.188 276.647C515.188 279.098 515.392 280.732 515.801 282.162C517.026 281.345 518.252 280.936 519.273 280.936C522.95 280.936 525.605 283.591 525.605 287.268C525.605 290.945 522.95 293.6 519.273 293.6C512.329 293.6 509.265 285.838 509.265 277.055C509.265 271.949 510.49 264.596 513.554 257.855H507.835L491.086 275.625V319.745C491.086 329.345 497.009 335.677 501.503 337.311C503.341 337.923 503.546 340.17 501.299 340.17H464.533Z"
        fill="#F5F5F5"
      />
      <path
        d="M428.525 341.804C409.733 341.804 397.478 323.421 397.478 303.404C397.478 273.174 415.248 256.017 415.248 250.502C415.248 248.868 414.431 248.051 413.206 247.03C411.367 245.6 412.593 244.17 414.023 244.17H456.712C458.755 244.17 459.367 246.008 457.529 247.234C456.304 248.255 453.648 248.664 453.648 255.608C453.648 272.562 442.619 300.34 413.001 304.221C415.248 321.379 425.257 326.485 431.18 326.485C442.414 326.485 448.542 315.455 449.767 304.834C449.767 304.017 450.176 303.404 451.197 303.404H454.67C455.691 303.404 456.099 303.813 456.099 304.834C455.895 321.583 450.584 341.804 428.525 341.804ZM412.593 296.459C431.997 289.515 439.759 272.562 440.167 257.651H421.989C415.861 270.519 412.797 283.591 412.593 296.459Z"
        fill="#F5F5F5"
      />
      <path
        d="M345.323 340.17C343.076 340.17 343.28 337.923 345.118 337.311C349.612 335.677 355.536 329.345 355.536 319.745V255.404H344.914C343.689 255.404 343.893 254.383 343.893 253.566C344.097 250.706 343.689 248.664 342.667 246.621C341.85 244.987 341.646 244.17 343.484 244.17H355.536V233.549C355.536 222.928 354.106 221.906 351.45 220.272C350.225 219.455 349.204 218.025 351.042 217.004L372.897 205.157C374.736 204.136 375.553 205.566 374.94 206.996C372.897 212.715 371.876 216.187 371.876 223.132V244.17H391.689C392.71 244.17 393.323 244.783 392.914 245.804C389.646 254.383 385.765 267.455 384.744 277.668C385.153 277.464 385.765 277.464 386.378 277.464C389.646 277.464 392.301 280.119 392.301 283.387C392.301 286.655 389.238 289.311 385.97 289.311C382.701 289.311 378.821 286.859 378.821 281.345C378.821 277.464 379.229 271.336 382.701 255.404H371.876V319.745C371.876 329.345 377.799 335.677 382.293 337.311C384.131 337.923 384.336 340.17 382.089 340.17H345.323Z"
        fill="#F5F5F5"
      />
      <path
        d="M257.884 340.17C255.637 340.17 255.841 337.923 257.68 337.311C262.173 335.677 268.097 329.345 268.097 319.745V264.596C268.097 254.996 262.173 248.664 257.68 247.03C255.841 246.417 255.637 244.17 257.884 244.17H282.803C283.824 244.17 284.437 244.783 284.437 245.804V266.842L296.488 253.566C299.96 249.685 296.488 247.642 294.241 246.825C292.403 246.213 292.812 244.17 294.446 244.17H335.501C337.135 244.17 337.339 245.396 336.114 247.234C323.041 266.434 321.203 278.077 321.203 292.783C321.203 307.489 326.105 320.153 331.62 327.711C335.092 332.613 338.769 335.268 341.629 337.106C344.488 338.945 343.875 340.17 342.037 340.17H321.407C320.182 340.17 319.365 339.762 318.548 338.74C308.744 326.281 305.475 308.306 305.475 292.987C305.475 284 306.088 272.153 314.463 257.855H302.616L284.437 277.872V319.745C284.437 329.345 290.361 335.677 294.854 337.311C296.692 337.923 296.897 340.17 294.65 340.17H257.884Z"
        fill="#F5F5F5"
      />
      <path
        d="M250.528 244.17C252.774 244.17 252.57 246.417 250.732 247.03C246.238 248.664 240.315 254.996 240.315 264.596V319.745C240.315 329.345 246.238 335.677 250.732 337.311C252.57 337.923 252.774 340.17 250.528 340.17H225.608C224.587 340.17 223.974 339.557 223.974 338.536V314.638L203.753 330.774C199.259 334.451 203.753 336.698 206 337.515C207.838 338.128 207.43 340.17 205.796 340.17H172.911C170.664 340.17 170.868 337.923 172.706 337.311C177.2 335.677 183.123 329.345 183.123 319.745V264.596C183.123 254.996 177.2 248.664 172.706 247.03C170.868 246.417 170.664 244.17 172.911 244.17H197.83C198.851 244.17 199.464 244.783 199.464 245.804V324.647L223.974 304.834V264.596C223.974 254.996 218.051 248.664 213.557 247.03C211.719 246.417 211.515 244.17 213.762 244.17H250.528Z"
        fill="#F5F5F5"
      />
      <path
        d="M133.449 340.783C116.088 330.57 104.854 313.004 104.854 294.825C104.854 258.877 129.16 252.545 132.632 243.557C133.654 240.902 134.471 241.515 137.943 243.557C155.305 253.974 167.151 271.54 167.151 289.515C167.151 325.464 142.028 332.408 138.76 340.783C137.739 343.438 136.922 342.825 133.449 340.783ZM120.581 289.719C120.581 304.017 128.343 320.766 139.577 327.506C147.339 318.928 151.424 309.736 151.424 294.621C151.424 280.323 143.662 263.574 132.428 256.834C124.666 265.208 120.581 274.604 120.581 289.719Z"
        fill="#F5F5F5"
      />
      <path
        d="M59.2121 342.213C32.6589 342.213 16.1143 316.885 16.1143 283.183C16.1143 236.613 42.0547 211.285 42.0547 204.136C42.0547 202.094 41.4419 201.277 39.6036 200.051C37.7653 198.825 38.5823 197.191 40.4206 197.191H99.6547C101.084 197.191 102.106 198.213 100.88 199.847C92.3015 210.877 75.9611 228.238 77.3909 251.523C78.4121 250.911 79.6377 250.502 80.8632 250.502C84.9483 250.502 88.0121 253.974 88.0121 257.855C88.0121 262.145 84.5398 265.413 80.0462 265.413C74.5313 265.413 69.4249 261.328 68.8121 251.115C68.4036 244.987 70.0377 228.851 79.0249 212.306H51.2462C39.8079 231.098 34.4972 251.932 34.4972 275.83C34.4972 314.23 50.8377 324.647 63.5015 324.647C79.4334 324.647 89.0334 305.651 89.0334 286.655C89.0334 285.225 89.6462 284.817 90.8717 284.613C92.71 284.408 94.5483 284.408 96.3866 284.613C98.2249 284.817 98.2249 285.225 98.2249 286.655C98.2249 308.306 90.6674 342.213 59.2121 342.213Z"
        fill="#F5F5F5"
      />
      <path
        d="M775.993 387.158C773.746 387.158 773.95 384.911 775.789 384.299C780.282 382.664 786.206 376.333 786.206 366.733V264.605C786.206 255.005 780.282 248.673 775.789 247.039C773.95 246.426 773.746 244.179 775.993 244.179H800.912C801.933 244.179 802.546 244.792 802.546 245.813V366.733C802.546 376.333 808.47 382.664 812.963 384.299C814.801 384.911 815.006 387.158 812.759 387.158H775.993Z"
        fill="#F5F5F5"
      />
      <path
        d="M732.309 387.158C730.063 387.158 730.267 384.911 732.105 384.299C736.599 382.664 742.522 376.333 742.522 366.733V264.605C742.522 255.005 736.599 248.673 732.105 247.039C730.267 246.426 730.063 244.179 732.309 244.179H757.229C758.25 244.179 758.863 244.792 758.863 245.813V366.733C758.863 376.333 764.786 382.664 769.28 384.299C771.118 384.911 771.322 387.158 769.075 387.158H732.309Z"
        fill="#F5F5F5"
      />
      <path
        d="M699.892 388.792C681.1 388.792 668.845 370.409 668.845 350.392C668.845 320.162 686.615 303.005 686.615 297.49C686.615 295.856 685.798 295.039 684.573 294.018C682.734 292.588 683.96 291.158 685.39 291.158H728.079C730.122 291.158 730.734 292.996 728.896 294.222C727.671 295.243 725.015 295.652 725.015 302.596C725.015 319.55 713.985 347.328 684.368 351.209C686.615 368.367 696.624 373.473 702.547 373.473C713.781 373.473 719.909 362.443 721.134 351.822C721.134 351.005 721.543 350.392 722.564 350.392H726.037C727.058 350.392 727.466 350.801 727.466 351.822C727.262 368.571 721.951 388.792 699.892 388.792ZM683.96 343.447C703.364 336.503 711.126 319.55 711.534 304.639H693.356C687.228 317.507 684.164 330.579 683.96 343.447Z"
        fill="#F5F5F5"
      />
      <path
        d="M593.081 425.967C590.834 425.967 591.038 423.72 592.876 423.107C597.37 421.473 603.294 415.141 603.294 405.541V311.584C603.294 301.984 597.37 295.652 592.876 294.018C591.038 293.405 590.834 291.158 593.081 291.158H618.204C619.021 291.158 619.634 291.771 619.634 292.588V300.35C623.515 293.201 629.847 289.524 636.587 289.524C652.315 289.524 662.936 303.005 662.936 323.022C662.936 355.294 639.651 373.269 639.651 380.418C639.651 382.46 640.672 383.686 642.102 384.299C644.349 385.32 643.123 387.158 641.693 387.158H619.634V405.541C619.634 415.141 626.17 421.473 631.072 423.107C633.115 423.72 633.319 425.967 630.868 425.967H593.081ZM619.634 373.677H632.911C640.672 360.605 647.413 344.06 647.413 325.064C647.413 307.703 638.834 302.392 632.502 302.392C626.374 302.392 619.634 306.477 619.634 319.345V373.677Z"
        fill="#F5F5F5"
      />
      <path
        d="M528.035 387.158C526.809 387.158 526.401 386.341 527.014 385.32C533.55 376.945 539.473 368.367 542.741 358.971C541.924 359.584 540.903 359.788 540.086 359.788C537.635 359.788 535.184 357.745 535.184 354.886C535.184 352.026 537.226 349.779 540.495 349.779C543.967 349.779 547.235 352.23 547.235 357.337C547.235 361.422 545.192 367.55 543.15 373.677H567.252C572.154 370.613 574.197 365.303 574.197 362.239C574.197 343.039 530.282 346.511 530.282 321.592C530.282 307.907 543.967 299.737 543.967 295.652C543.967 294.63 543.558 294.018 542.537 293.405C541.516 292.792 541.72 291.158 543.558 291.158H583.592C584.614 291.158 585.635 291.771 584.001 293.813C579.712 299.533 573.38 307.294 573.175 316.282C573.788 315.873 574.605 315.669 575.422 315.669C578.077 315.669 580.12 317.916 580.12 320.571C580.12 323.43 577.465 325.473 575.014 325.473C570.929 325.473 568.273 321.796 568.273 317.507C568.273 311.992 569.295 308.111 570.316 304.639H548.052C544.784 307.499 542.537 311.584 542.537 316.077C542.537 333.847 588.699 328.333 588.086 355.907C587.882 366.12 580.937 372.86 572.971 379.805C570.929 381.643 571.133 383.686 572.358 385.524C573.175 386.75 572.563 387.158 571.746 387.158H528.035Z"
        fill="#F5F5F5"
      />
      <path
        d="M511.668 177.851C513.835 177.851 515.592 179.607 515.592 181.774C515.592 183.941 513.835 185.698 511.668 185.698C509.502 185.698 507.746 183.94 507.746 181.774C507.746 179.608 509.502 177.851 511.668 177.851ZM679.053 177.851C681.22 177.851 682.976 179.607 682.976 181.774C682.976 183.941 681.22 185.698 679.053 185.698C676.887 185.698 675.13 183.941 675.13 181.774C675.131 179.607 676.887 177.851 679.053 177.851ZM532.591 168.697C534.036 168.697 535.208 169.869 535.208 171.313C535.207 172.757 534.036 173.928 532.591 173.928C531.147 173.928 529.976 172.757 529.976 171.313C529.976 169.869 531.147 168.697 532.591 168.697ZM658.13 168.697C659.575 168.697 660.746 169.869 660.746 171.313C660.745 172.757 659.575 173.928 658.13 173.928C656.686 173.928 655.515 172.757 655.515 171.313C655.515 169.869 656.686 168.697 658.13 168.697ZM532.591 124.236C534.036 124.236 535.208 125.407 535.208 126.851C535.208 128.296 534.036 129.466 532.591 129.466C531.147 129.466 529.976 128.295 529.976 126.851C529.976 125.407 531.147 124.236 532.591 124.236ZM658.13 124.236C659.575 124.236 660.746 125.407 660.746 126.851C660.746 128.296 659.575 129.466 658.13 129.466C656.686 129.466 655.515 128.296 655.515 126.851C655.515 125.407 656.686 124.236 658.13 124.236ZM511.668 105.928C514.557 105.928 516.9 108.27 516.9 111.159C516.9 114.048 514.557 116.389 511.668 116.389C508.78 116.389 506.438 114.047 506.438 111.159C506.438 108.27 508.78 105.928 511.668 105.928ZM679.053 105.928C681.942 105.928 684.284 108.27 684.284 111.159C684.284 114.048 681.942 116.389 679.053 116.389C676.164 116.389 673.823 114.048 673.823 111.159C673.823 108.27 676.164 105.928 679.053 105.928ZM569.208 82.3892C570.652 82.3893 571.823 83.561 571.823 85.0054C571.823 86.4495 570.652 87.6204 569.208 87.6206C567.763 87.6206 566.593 86.4496 566.592 85.0054C566.592 83.5609 567.763 82.3892 569.208 82.3892ZM621.515 82.3892C622.96 82.3892 624.13 83.561 624.13 85.0054C624.13 86.4496 622.959 87.6205 621.515 87.6206C620.071 87.6206 618.9 86.4496 618.9 85.0054C618.9 83.5609 620.071 82.3892 621.515 82.3892ZM558.746 58.8511C561.634 58.8511 563.976 61.1928 563.976 64.0815C563.976 66.9704 561.634 69.313 558.746 69.313C555.857 69.3129 553.515 66.9704 553.515 64.0815C553.515 61.1928 555.857 58.8511 558.746 58.8511ZM631.976 58.8511C634.865 58.8511 637.207 61.1928 637.208 64.0815C637.208 66.9704 634.865 69.313 631.976 69.313C629.087 69.3128 626.746 66.9703 626.746 64.0815C626.746 61.1929 629.087 58.8513 631.976 58.8511Z"
        fill="#F5F5F5"
      />
      <path
        d="M527.361 189.621C528.187 189.621 528.856 190.29 528.856 191.115C528.954 195.196 532.247 198.487 536.328 198.584C537.153 198.585 537.822 199.257 537.822 200.083C537.822 200.908 537.153 201.577 536.328 201.577C532.246 201.674 528.955 204.967 528.857 209.048C528.857 209.874 528.187 210.543 527.361 210.543C526.536 210.543 525.867 209.874 525.867 209.048C525.769 204.967 522.475 201.676 518.394 201.579C517.568 201.579 516.899 200.908 516.898 200.083C516.898 199.257 517.568 198.587 518.394 198.587C522.475 198.49 525.766 195.196 525.864 191.115C525.864 190.29 526.536 189.621 527.361 189.621ZM663.362 189.621C664.188 189.621 664.856 190.29 664.856 191.115C664.954 195.196 668.247 198.487 672.328 198.584C673.154 198.584 673.823 199.257 673.823 200.083C673.823 200.908 673.154 201.577 672.329 201.577C668.247 201.674 664.956 204.967 664.858 209.048C664.858 209.874 664.188 210.543 663.362 210.543C662.537 210.543 661.868 209.874 661.868 209.048C661.77 204.967 658.476 201.675 654.395 201.578C653.569 201.578 652.9 200.908 652.899 200.083C652.899 199.257 653.568 198.588 654.394 198.587C658.475 198.49 661.767 195.196 661.865 191.115C661.865 190.29 662.537 189.621 663.362 189.621ZM511.669 132.082C512.907 132.082 513.91 133.086 513.91 134.324L513.911 136.565C513.911 141.517 517.926 145.533 522.878 145.533H525.119C526.357 145.533 527.361 146.536 527.361 147.774C527.361 149.012 526.357 150.016 525.119 150.016H522.86C517.916 150.026 513.911 154.036 513.911 158.983L513.91 161.224C513.91 162.462 512.907 163.466 511.669 163.466C510.431 163.466 509.427 162.462 509.427 161.224V158.952C509.41 154.019 505.411 150.026 500.478 150.016H498.219C496.981 150.016 495.977 149.012 495.977 147.774C495.977 146.536 496.981 145.533 498.219 145.533H500.46C505.402 145.533 509.41 141.534 509.427 136.596V134.324C509.427 133.086 510.431 132.082 511.669 132.082ZM679.054 132.082C680.292 132.082 681.295 133.086 681.295 134.324V136.565C681.295 141.517 685.31 145.533 690.263 145.533H692.504C693.742 145.533 694.746 146.536 694.746 147.774C694.746 149.012 693.742 150.016 692.504 150.016H690.245C685.301 150.026 681.295 154.036 681.295 158.983V161.224C681.295 162.462 680.292 163.466 679.054 163.466C677.816 163.466 676.812 162.462 676.812 161.224V158.952C676.795 154.019 672.796 150.026 667.862 150.016H665.603C664.365 150.016 663.361 149.012 663.361 147.774C663.361 146.536 664.365 145.533 665.603 145.533H667.845C672.787 145.533 676.795 141.534 676.812 136.596V134.324C676.812 133.086 677.816 132.082 679.054 132.082ZM532.592 64.0815C534.243 64.0815 535.581 65.42 535.581 67.0708V70.0601C535.581 76.663 540.934 82.0161 547.537 82.0161H550.526C552.177 82.0163 553.514 83.3539 553.515 85.0044C553.515 86.6551 552.177 87.9934 550.526 87.9937H547.514C540.921 88.0063 535.581 93.3544 535.581 99.9497V102.939C535.581 104.59 534.243 105.928 532.592 105.928C530.941 105.928 529.603 104.59 529.603 102.939V99.9087C529.58 93.3323 524.249 88.0063 517.67 87.9937H514.658C513.007 87.9937 511.669 86.6552 511.669 85.0044C511.669 83.3538 513.008 82.0161 514.658 82.0161H517.646C524.236 82.0161 529.58 76.6852 529.603 70.1011V67.0708C529.603 65.4201 530.941 64.0816 532.592 64.0815ZM658.131 64.0815C659.781 64.0818 661.119 65.4202 661.119 67.0708V70.0601C661.119 76.6629 666.472 82.0159 673.075 82.0161H676.064C677.715 82.0161 679.053 83.3538 679.054 85.0044C679.054 86.6552 677.715 87.9937 676.064 87.9937H673.052C666.46 88.0065 661.119 93.3545 661.119 99.9497V102.939C661.119 104.59 659.781 105.928 658.131 105.928C656.48 105.928 655.142 104.59 655.142 102.939V99.9087C655.119 93.3323 649.788 88.0064 643.209 87.9937H640.196C638.546 87.9936 637.207 86.6552 637.207 85.0044C637.207 83.3538 638.546 82.0161 640.196 82.0161H643.186C649.775 82.016 655.119 76.6852 655.142 70.1011V67.0708C655.142 65.42 656.48 64.0815 658.131 64.0815ZM595.361 43.1587C597.012 43.1588 598.351 44.4972 598.351 46.1479V49.1362C598.351 55.7394 603.704 61.0923 610.307 61.0923H613.295C614.946 61.0923 616.284 62.4309 616.284 64.0815C616.284 65.7323 614.946 67.0708 613.295 67.0708H610.283C603.691 67.0834 598.351 72.4315 598.351 79.0269V82.0161C598.35 83.6667 597.012 85.0043 595.361 85.0044C593.711 85.0044 592.372 83.6668 592.372 82.0161V78.9858C592.35 72.4093 587.018 67.0834 580.439 67.0708H577.427C575.776 67.0706 574.438 65.7322 574.438 64.0815C574.439 62.431 575.776 61.0925 577.427 61.0923H580.416C587.006 61.0923 592.35 55.7616 592.372 49.1772V46.1479C592.372 44.4972 593.711 43.1587 595.361 43.1587Z"
        fill="#DAA520"
      />
      <path
        d="M592.373 199.709C592.373 201.359 593.711 202.697 595.362 202.697C597.012 202.697 598.35 201.359 598.351 199.709V196.556C598.438 190.029 603.757 184.764 610.306 184.764H613.295C614.946 184.764 616.286 183.426 616.286 181.775C616.286 180.124 614.947 178.786 613.297 178.786H610.239C603.721 178.75 598.438 173.499 598.351 159.147V140.302C598.351 138.652 597.013 137.312 595.362 137.312C593.711 137.312 592.373 138.651 592.373 140.301L592.372 158.984C592.372 173.411 587.055 178.75 580.483 178.786H577.427C575.776 178.786 574.438 180.124 574.438 181.775C574.438 183.425 575.776 184.764 577.427 184.764L580.416 184.764C587.019 184.764 592.372 190.117 592.372 196.72L592.373 199.709Z"
        fill="#F5F5F5"
      />
      <path
        d="M629.174 265.466C630.925 265.466 632.56 266.341 633.531 267.798L637.208 273.312H553.515L557.191 267.798C558.163 266.341 559.798 265.466 561.549 265.466H629.174ZM595.361 95.4663C624.25 95.4663 647.669 118.885 647.669 147.774V265.847C647.669 268.323 644.552 269.416 643.006 267.483L626.746 247.159L626.465 246.76C625.483 245.37 623.888 244.544 622.186 244.543H568.537C566.835 244.543 565.24 245.37 564.259 246.76L563.976 247.159L547.717 267.483C546.17 269.416 543.053 268.322 543.053 265.847V147.774C543.054 118.885 566.472 95.4663 595.361 95.4663ZM618.712 252.389C620.463 252.389 622.099 253.264 623.07 254.721L626.746 260.236H563.976L567.652 254.721C568.623 253.264 570.259 252.389 572.01 252.389H618.712ZM595.361 116.389C578.028 116.389 563.976 130.441 563.976 147.774V236.697H583.156C586.045 236.696 588.386 234.354 588.386 231.465C588.386 228.577 586.044 226.235 583.156 226.235H578.361C576.195 226.235 574.438 224.479 574.438 222.312C574.438 220.146 576.195 218.389 578.361 218.389H612.361C614.527 218.389 616.285 220.146 616.285 222.312C616.285 224.479 614.528 226.235 612.361 226.235H607.566C604.678 226.235 602.335 228.577 602.335 231.465C602.335 234.354 604.677 236.697 607.566 236.697H626.746V147.774C626.746 130.441 612.694 116.389 595.361 116.389Z"
        fill="#DAA520"
      />
    </svg>