<svg fill="none" viewBox="0 0 680 734" width="680" xmlns="http://www.w3.org/2000/svg" xmlns:xlink="http://www.w3.org/1999/xlink"><linearGradient id="a" gradientUnits="userSpaceOnUse" x1="339.522" x2="339.522" y1="203.431" y2="648.168"><stop offset="0" stop-color="#1d9bf0"/><stop offset=".261852" stop-color="#01c6ff"/><stop offset="1" stop-color="#3df6ce"/></linearGradient><path d="m340 8.5c170.38 0 308.5 138.12 308.5 308.5v370c0 21.263-17.237 38.5-38.5 38.5h-540c-21.263 0-38.5-17.237-38.5-38.5v-370c0-170.38 138.12-308.5 308.5-308.5z" fill="#36008e" stroke="#fff" stroke-width="17"/><path clip-rule="evenodd" d="m261.539 125.077c0 7.222-5.855 13.077-13.077 13.077s-13.077-5.855-13.077-13.077 5.855-13.077 13.077-13.077 13.077 5.855 13.077 13.077zm-78.462 274.615c3.611 0 6.539-2.927 6.539-6.538s-2.928-6.539-6.539-6.539-6.538 2.928-6.538 6.539 2.927 6.538 6.538 6.538zm313.847 0c3.611 0 6.538-2.927 6.538-6.538s-2.927-6.539-6.538-6.539-6.539 2.928-6.539 6.539 2.928 6.538 6.539 6.538zm-65.385-261.538c7.222 0 13.077-5.855 13.077-13.077s-5.855-13.077-13.077-13.077-13.077 5.855-13.077 13.077 5.855 13.077 13.077 13.077zm-19.615 39.231c0 3.611-2.928 6.538-6.539 6.538s-6.538-2.927-6.538-6.538 2.927-6.539 6.538-6.539 6.539 2.928 6.539 6.539zm-137.308 6.538c3.611 0 6.539-2.927 6.539-6.538s-2.928-6.539-6.539-6.539-6.538 2.928-6.538 6.539 2.927 6.538 6.538 6.538zm-85 98.077c0 3.611-2.928 6.538-6.539 6.538s-6.538-2.927-6.538-6.538 2.927-6.539 6.538-6.539 6.539 2.928 6.539 6.539zm-58.846 147.116c5.416 0 9.807-4.392 9.807-9.808 0-5.417-4.391-9.808-9.807-9.808-5.417 0-9.808 4.391-9.808 9.808 0 5.416 4.391 9.808 9.808 9.808zm428.269-9.808c0 5.416-4.391 9.808-9.807 9.808-5.417 0-9.808-4.392-9.808-9.808 0-5.417 4.391-9.808 9.808-9.808 5.416 0 9.807 4.391 9.807 9.808zm-428.269-163.462c7.222 0 13.077-5.855 13.077-13.077s-5.855-13.077-13.077-13.077-13.077 5.855-13.077 13.077 5.855 13.077 13.077 13.077zm431.538-13.077c0 7.222-5.854 13.077-13.077 13.077-7.222 0-13.076-5.855-13.076-13.077s5.854-13.077 13.076-13.077c7.223 0 13.077 5.855 13.077 13.077zm-65.384 45.769c3.611 0 6.538-2.927 6.538-6.538s-2.927-6.539-6.538-6.539-6.539 2.928-6.539 6.539 2.928 6.538 6.539 6.538z" fill="#f5f5f5" fill-rule="evenodd"/><path clip-rule="evenodd" d="m340.001 72.7692c4.126 0 7.472 3.3455 7.472 7.4725v7.4725c0 16.5078 13.382 29.8898 29.89 29.8898h7.473c4.127 0 7.472 3.346 7.472 7.473s-3.345 7.472-7.472 7.472h-7.531c-16.481.032-29.832 13.402-29.832 29.89v7.473c0 4.127-3.346 7.473-7.472 7.473-4.127 0-7.473-3.346-7.473-7.473v-7.575c-.055-16.441-13.385-29.756-29.831-29.788h-7.532c-4.127 0-7.472-3.345-7.472-7.472s3.345-7.473 7.472-7.473h7.473c16.474 0 29.835-13.327 29.89-29.7875v-7.5748c0-4.127 3.346-7.4725 7.473-7.4725zm-166.264 369.8888c.244 10.205 8.475 18.432 18.68 18.676 2.063 0 3.736 1.68 3.736 3.744 0 2.063-1.672 3.736-3.736 3.736-10.204.244-18.432 8.475-18.676 18.68 0 2.063-1.677 3.736-3.74 3.736-2.064 0-3.736-1.672-3.736-3.736-.245-10.204-8.479-18.432-18.684-18.676-2.063 0-3.737-1.677-3.737-3.74 0-2.064 1.673-3.736 3.736-3.736 10.205-.245 18.433-8.479 18.677-18.684.001-2.063 1.681-3.735 3.744-3.735s3.736 1.672 3.736 3.735zm340.002 0c.244 10.205 8.475 18.432 18.68 18.676 2.063 0 3.737 1.68 3.737 3.744 0 2.063-1.673 3.736-3.737 3.736-10.204.244-18.432 8.475-18.676 18.68 0 2.063-1.677 3.736-3.74 3.736-2.064 0-3.736-1.672-3.736-3.736-.245-10.204-8.479-18.432-18.684-18.676-2.063 0-3.737-1.677-3.737-3.74 0-2.064 1.673-3.736 3.736-3.736 10.205-.245 18.433-8.479 18.677-18.684.001-2.063 1.681-3.735 3.744-3.735s3.736 1.672 3.736 3.735zm-377.365-141.977c0-3.095-2.509-5.604-5.604-5.604-3.096 0-5.605 2.509-5.605 5.604v5.681c-.041 12.346-10.062 22.341-22.417 22.341h-5.6048c-3.0953 0-5.6044 2.509-5.6044 5.605 0 3.095 2.5091 5.604 5.6044 5.604h5.6488c12.335.024 22.332 10.01 22.373 22.341v5.681c0 3.095 2.509 5.604 5.605 5.604 3.095 0 5.604-2.509 5.604-5.604v-5.604c0-12.367 10.013-22.394 22.374-22.418h5.648c3.095 0 5.604-2.509 5.604-5.604 0-3.096-2.509-5.605-5.604-5.605h-5.604c-12.381 0-22.418-10.037-22.418-22.417zm46.704-175.604c4.127 0 7.472 3.345 7.472 7.472v7.473c0 16.508 13.383 29.89 29.89 29.89h7.473c4.127 0 7.472 3.346 7.472 7.473 0 4.126-3.345 7.472-7.472 7.472h-7.531c-16.481.032-29.832 13.402-29.832 29.89v7.473c0 4.127-3.345 7.472-7.472 7.472s-7.473-3.345-7.473-7.472v-7.575c-.055-16.442-13.384-29.756-29.831-29.788h-7.532c-4.127 0-7.472-3.346-7.472-7.472 0-4.127 3.345-7.473 7.472-7.473h7.473c16.474 0 29.835-13.327 29.89-29.788v-7.575c0-4.127 3.346-7.472 7.473-7.472zm371.758 175.604c0-3.095-2.509-5.604-5.605-5.604-3.095 0-5.604 2.509-5.604 5.604v5.681c-.041 12.346-10.062 22.341-22.417 22.341h-5.605c-3.095 0-5.604 2.509-5.604 5.605 0 3.095 2.509 5.604 5.604 5.604h5.649c12.335.024 22.332 10.01 22.373 22.341v5.681c0 3.095 2.509 5.604 5.604 5.604 3.096 0 5.605-2.509 5.605-5.604v-5.604c0-12.367 10.013-22.394 22.374-22.418h5.648c3.095 0 5.604-2.509 5.604-5.604 0-3.096-2.509-5.605-5.604-5.605h-5.604c-12.381 0-22.418-10.037-22.418-22.417zm-57.913-175.604c4.127 0 7.473 3.345 7.473 7.472v7.473c0 16.508 13.382 29.89 29.89 29.89h7.473c4.127 0 7.472 3.346 7.472 7.473 0 4.126-3.345 7.472-7.472 7.472h-7.531c-16.481.032-29.832 13.402-29.832 29.89v7.473c0 4.127-3.346 7.472-7.473 7.472s-7.472-3.345-7.472-7.472v-7.575c-.055-16.442-13.385-29.756-29.831-29.788h-7.532c-4.127 0-7.472-3.346-7.472-7.472 0-4.127 3.345-7.473 7.472-7.473h7.473c16.474 0 29.835-13.327 29.89-29.788v-7.575c0-4.127 3.345-7.472 7.472-7.472z" fill="#eaf" fill-rule="evenodd"/><path d="m332.529 464.145c.001 4.126 3.346 7.471 7.473 7.471 4.126 0 7.471-3.345 7.472-7.471v-7.881c.219-16.32 13.516-29.481 29.888-29.481h7.472c4.127 0 7.477-3.346 7.477-7.473s-3.345-7.473-7.472-7.473h-7.645c-16.295-.09-29.502-13.217-29.72-49.096v-47.112c0-4.127-3.345-7.475-7.472-7.475s-7.473 3.345-7.473 7.472l-.003 46.706c0 36.067-13.291 49.415-29.722 49.505h-7.639c-4.127.001-7.473 3.346-7.473 7.473 0 4.126 3.345 7.472 7.472 7.472l7.472.001c16.508 0 29.89 13.382 29.89 29.89z" fill="#f5f5f5"/><path clip-rule="evenodd" d="m261.539 334.308c0-43.333 35.128-78.462 78.462-78.462 43.333 0 78.461 35.129 78.461 78.462v222.307h-43.591-4.36c-7.222 0-13.077-5.854-13.077-13.077 0-7.198 5.815-13.037 13.004-13.076h12.063c5.416 0 9.807-4.391 9.807-9.808s-4.391-9.808-9.807-9.808h-85.001c-5.416 0-9.807 4.391-9.807 9.808s4.391 9.808 9.807 9.808h12.059c7.189.039 13.004 5.878 13.004 13.076 0 7.223-5.855 13.077-13.077 13.077l-4.358.001-43.589-.001zm156.22 247.465.703.996 40.649 50.812c3.866 4.832 11.659 2.098 11.659-4.09v-295.183c0-72.222-58.548-130.77-130.769-130.77-72.222 0-130.77 58.548-130.77 130.77v295.183c0 6.188 7.793 8.922 11.659 4.09l40.649-50.812.703-.996c2.453-3.475 6.442-5.542 10.697-5.542h134.123c4.255 0 8.244 2.067 10.697 5.542zm-136.136 14.073c-4.378 0-8.466 2.188-10.894 5.831l-9.19 13.785h156.923l-9.19-13.785c-2.428-3.643-6.516-5.831-10.894-5.831zm-26.154 32.693c-4.377 0-8.466 2.188-10.894 5.83l-9.19 13.785h209.231l-9.19-13.785c-2.428-3.642-6.516-5.83-10.894-5.83z" fill="url(#a)" fill-rule="evenodd"/></svg>